<?xml version="1.0" encoding="UTF-8"?>
<svg width="65px" height="28px" viewBox="0 0 65 28" version="1.1" xmlns="http://www.w3.org/2000/svg" xmlns:xlink="http://www.w3.org/1999/xlink">
    <!-- Generator: Sketch 49 (51002) - http://www.bohemiancoding.com/sketch -->
    <title>Page 1</title>
    <desc>Created with Sketch.</desc>
    <defs></defs>
    <g id="Page-1" stroke="none" stroke-width="1" fill="none" fill-rule="evenodd">
        <g id="POST--VIDEO-Copy" transform="translate(-1194.000000, -726.000000)" fill="#FFFFFF">
            <path d="M1252.31486,746.169702 C1246.13786,749.582702 1238.40686,750.726702 1231.47886,751.327702 C1223.24086,752.043702 1214.65086,751.807702 1206.62686,749.661702 C1203.92486,748.938702 1193.66886,746.302702 1196.00686,741.793702 C1197.82586,738.287702 1205.06686,736.596702 1208.40686,735.564702 C1214.61286,733.644702 1221.02086,732.308702 1227.43686,731.315702 C1228.74186,731.113702 1230.10586,730.884702 1231.49486,730.671702 C1232.73486,730.895702 1233.97186,731.128702 1235.20486,731.377702 C1240.33686,732.413702 1265.90386,738.661702 1252.31486,746.169702 M1248.51286,732.932702 C1245.31486,731.754702 1242.00986,730.788702 1238.64186,729.982702 C1240.01986,729.969702 1241.37686,730.044702 1242.68286,730.269702 C1243.62386,730.431702 1244.60286,728.691702 1243.57986,728.515702 C1240.11586,727.917702 1236.41886,728.272702 1232.84886,728.763702 C1224.85186,727.281702 1216.63786,726.546702 1208.74486,726.002702 C1207.79386,725.937702 1207.09386,727.746702 1208.25486,727.826702 C1214.19086,728.234702 1220.14286,728.874702 1226.04586,729.769702 C1219.82186,730.772702 1213.62186,732.131702 1207.62686,734.052702 C1201.94086,735.874702 1186.95486,742.187702 1197.89686,748.398702 C1205.21186,752.551702 1214.62186,753.444702 1222.87086,753.485702 C1231.58586,753.529702 1240.79486,752.542702 1248.99586,749.433702 C1252.40386,748.141702 1258.31786,745.587702 1258.21286,741.059702 C1258.10886,736.516702 1251.96786,734.203702 1248.51286,732.932702" id="Page-1"></path>
        </g>
    </g>
</svg>