<?xml version="1.0" encoding="UTF-8"?>
<svg width="453px" height="227px" viewBox="0 0 453 227" version="1.1" xmlns="http://www.w3.org/2000/svg" xmlns:xlink="http://www.w3.org/1999/xlink">
    <!-- Generator: Sketch 49 (51002) - http://www.bohemiancoding.com/sketch -->
    <title>Page 1</title>
    <desc>Created with Sketch.</desc>
    <defs>
        <polygon id="path-1" points="0 0.121961212 164.366548 0.121961212 164.366548 186 0 186"></polygon>
    </defs>
    <g id="Page-1" stroke="none" stroke-width="1" fill="none" fill-rule="evenodd">
        <g id="POST--VIDEO-Copy" transform="translate(-865.000000, -277.000000)">
            <g id="Page-1" transform="translate(865.000000, 277.000000)">
                <path d="M255.3704,60.9734 L238.7404,60.9734 L238.7404,35.9794 C238.7404,33.6514 235.1064,35.1324 235.1064,37.1054 L235.1064,63.3134 C235.1064,64.1274 235.9284,64.5274 236.6204,64.5274 L254.7634,64.5274 C256.8114,64.5274 257.8864,60.9734 255.3704,60.9734" id="Fill-1" fill="#FFFFFF"></path>
                <path d="M272.6667,60.4588 C259.9707,64.7748 259.2487,39.9938 268.8587,39.4338 C274.5147,39.5788 279.9637,42.2278 280.2727,48.4748 C280.5167,53.4168 277.4787,58.8228 272.6667,60.4588 M269.9457,35.9078 C269.8017,35.8838 269.6457,35.8698 269.4657,35.8808 C269.3047,35.8758 269.1507,35.9008 269.0027,35.9378 C254.7977,37.4288 255.1087,67.7998 271.5897,64.2128 C278.5247,62.7028 283.5727,55.8938 283.9027,48.9368 C284.3077,40.4348 277.6377,36.2668 269.9457,35.9078" id="Fill-3" fill="#FFFFFF"></path>
                <path d="M296.5544,48.5691 C297.5164,46.0661 298.4794,43.5631 299.4424,41.0601 C300.7264,43.6301 302.0114,46.1991 303.2954,48.7681 L296.5544,48.5691 Z M301.1004,35.5641 C300.3544,34.0711 298.2134,34.9301 297.7234,36.2041 C296.1524,40.2911 294.5794,44.3781 293.0084,48.4641 C292.0664,48.4361 291.1244,48.4081 290.1814,48.3811 C288.1314,48.3201 287.0624,51.8591 289.5754,51.9331 C290.2664,51.9541 290.9584,51.9741 291.6504,51.9951 C290.3144,55.4671 288.9794,58.9391 287.6434,62.4121 C286.7074,64.8461 290.1914,65.1121 290.9694,63.0891 C292.3784,59.4251 293.7874,55.7621 295.1964,52.0991 C298.4994,52.1971 301.8044,52.2951 305.1084,52.3921 C306.6614,55.4991 308.2144,58.6061 309.7684,61.7131 C310.7614,63.6991 314.0974,61.5571 313.1974,59.7561 C309.1644,51.6921 305.1324,43.6281 301.1004,35.5641 Z" id="Fill-5" fill="#FFFFFF"></path>
                <path d="M322.4011,58.4559 C322.3251,52.0169 322.2491,45.5749 322.1721,39.1359 C329.4311,37.2509 337.5881,38.9959 337.9321,48.0799 C338.2731,57.0899 329.8311,59.4229 322.4011,58.4559 M320.1721,36.2539 C319.1931,36.5909 318.5051,37.4609 318.5171,38.5069 C318.6051,45.8599 318.6921,53.2139 318.7791,60.5679 C318.7681,60.7689 318.7971,60.9569 318.8711,61.1269 C319.0291,61.5799 319.3951,61.7849 319.8391,61.7999 C319.8421,61.7999 319.8441,61.8009 319.8471,61.8019 C329.5341,63.4879 341.2341,59.9269 341.5661,48.4699 C341.9311,35.8839 330.3461,32.7579 320.1721,36.2539" id="Fill-7" fill="#FFFFFF"></path>
                <path d="M345.905,37.1053 C346.577,45.8413 347.249,54.5773 347.921,63.3133 C348.101,65.6623 351.708,64.1733 351.554,62.1873 C350.883,53.4523 350.211,44.7153 349.539,35.9793 C349.358,33.6303 345.752,35.1193 345.905,37.1053" id="Fill-9" fill="#FFFFFF"></path>
                <path d="M384.2087,35.0897 L385.7907,55.6587 L365.3357,35.2037 C364.0057,33.8737 362.0327,35.6157 362.0327,37.1057 L362.0327,63.3137 C362.0327,65.6417 365.6667,64.1597 365.6667,62.1877 L365.6667,41.1847 L386.5557,62.0727 C387.8237,63.3417 389.9767,61.7117 389.8577,60.1717 C389.1867,51.4357 388.5147,42.6997 387.8427,33.9637 C387.6617,31.6147 384.0557,33.1037 384.2087,35.0897" id="Fill-11" fill="#FFFFFF"></path>
                <path d="M419.5925,48.8777 L409.5125,48.8777 C407.4645,48.8777 406.3895,52.4307 408.9055,52.4307 L417.7205,52.4307 C417.7585,54.8147 414.3205,57.6527 412.2825,58.3507 C405.7045,60.6017 399.9595,57.6437 399.0795,50.6987 C398.3685,45.0867 398.9335,38.9587 405.6015,38.3567 C407.1225,38.2197 415.3005,38.0807 415.4555,41.1377 C415.5755,43.4817 419.1915,41.9957 419.0895,40.0117 C418.7885,34.1017 407.5695,34.3497 403.9495,35.1027 C395.7485,36.8087 394.2755,45.8627 395.6315,53.0337 C397.3265,61.9917 406.3785,64.7067 414.1995,61.1107 C417.7795,59.4657 422.8135,54.1847 421.0035,49.6767 C420.7655,49.0837 420.1805,48.8777 419.5925,48.8777" id="Fill-13" fill="#FFFFFF"></path>
                <path d="M433.7576,84.0887 C422.4796,88.9127 409.3586,89.1667 397.3006,88.6627 C382.9196,88.0637 368.5776,87.0417 354.1816,86.6977 C322.2856,85.9367 290.2976,86.3677 258.4646,88.5877 C244.2386,89.5787 230.4286,91.6407 216.5666,95.0057 C210.1836,96.5557 203.8466,98.2807 197.4906,99.9377 C193.3576,101.0147 188.9826,102.4817 184.6916,102.7407 C184.0676,102.7777 182.5066,102.4427 182.7046,103.0517 C182.4396,102.2367 185.4876,99.7627 185.9356,99.3307 C195.7836,89.7877 202.3646,78.2547 204.6446,64.6767 C206.4246,54.0767 205.1476,43.0397 207.5806,32.5597 C211.6446,15.0607 232.4796,12.5827 247.4216,10.1167 C287.5876,3.4877 329.5556,1.6547 370.1356,4.7747 C387.0686,6.0757 405.1956,7.9107 420.9336,14.7567 C426.0896,16.9997 431.0266,19.8897 434.3926,24.4947 C439.3456,31.2747 443.4656,39.1157 446.2426,47.0367 C451.4436,61.8707 449.5826,77.3197 433.7576,84.0887 M436.7846,21.0247 C428.1176,10.0277 410.7456,6.7607 397.8356,4.4667 C376.2646,0.6327 354.1066,-0.1293 332.2396,0.0167 C309.7616,0.1667 287.2426,1.4857 264.9226,4.1797 C249.9656,5.9837 232.8966,7.3937 219.1016,13.9947 C209.4346,18.6217 204.5126,26.9187 203.1996,37.3377 C201.5866,50.1477 202.8456,63.0687 198.3396,75.4407 C195.3036,83.7767 190.1566,90.8437 183.8216,96.9837 C180.8066,99.8817 175.6366,106.6527 183.5196,106.3377 C187.5666,106.1767 191.6986,104.8857 195.5926,103.8917 C201.9786,102.2607 208.3306,100.5027 214.7286,98.9147 C247.5736,90.7627 281.7826,90.3137 315.4726,89.9877 C332.4546,89.8237 349.4446,90.0167 366.4156,90.6387 C381.7246,91.1997 397.1946,93.1587 412.5066,92.0437 C428.9836,90.8447 449.3746,85.0167 452.3686,66.1007 C454.8046,50.7157 446.0626,32.7957 436.7846,21.0247" id="Fill-15" fill="#FFFFFF"></path>
                <g id="Group-19" transform="translate(0.000000, 40.829000)">
                    <mask id="mask-2" fill="white">
                        <use xlink:href="#path-1"></use>
                    </mask>
                    <g id="Clip-18"></g>
                    <path d="M159.1892,55.3495 C160.5072,60.2715 162.3122,66.5485 157.8412,70.6055 C152.1892,75.7335 142.2522,75.7715 135.1612,74.7455 C128.6032,73.7975 121.9112,71.6215 116.5422,67.6425 C114.1342,65.8575 112.2312,63.6275 110.6502,61.1635 C110.5802,60.9545 110.4702,60.7975 110.3382,60.6725 C108.3192,57.3995 106.8372,53.7405 105.5042,50.1535 C104.0542,46.2525 102.7412,42.8675 99.3182,40.2765 C96.1152,37.8505 92.7662,37.0415 89.3172,37.4095 C89.6752,37.1815 90.0382,36.9605 90.4072,36.7585 C92.4552,35.6385 91.4512,32.5285 89.1592,33.7835 C85.8672,35.5845 82.5132,38.2515 81.0932,41.8465 C79.4872,45.9125 81.5562,49.2415 84.7332,51.7475 C86.2922,52.9785 88.7832,49.9195 87.0382,48.5425 C84.2562,46.3475 83.9242,44.0385 84.8852,41.9535 C95.5542,37.4285 99.9012,46.2955 103.6532,55.1015 C96.2112,52.1635 87.1102,54.7265 80.6912,59.3725 C65.8472,70.1175 59.1872,90.8285 56.6462,108.2255 C50.8182,122.4695 36.5832,131.0975 21.7392,133.4695 C17.7472,134.1075 13.5372,134.3215 9.5272,133.7005 C8.4382,133.5315 5.4092,133.2725 4.6682,132.3445 C3.7912,131.2475 4.3282,131.0905 5.4042,129.8965 C8.3092,126.6705 13.0312,125.0185 14.5562,120.6715 C15.6502,117.5515 15.2552,113.9545 15.9092,110.7215 C16.6482,107.0665 17.9652,103.4575 19.7062,100.0675 C19.9852,99.7705 20.1922,99.4175 20.2662,99.0335 C21.7802,96.2665 23.5632,93.6555 25.5742,91.3225 C29.8572,86.3525 35.2592,82.2205 41.1552,79.3485 C44.8352,77.5565 49.8772,75.4075 54.0222,76.7685 C55.9162,77.3905 57.7772,74.0135 55.5222,73.2725 C47.6632,70.6915 37.4432,77.1335 31.5332,81.5565 C27.2652,84.7495 23.4222,88.6275 20.2722,92.9965 C20.7652,81.5505 24.5272,69.7685 29.3682,59.7615 C35.6932,46.6875 45.1292,35.8745 56.1502,26.5275 C58.9852,24.1225 61.9262,21.8115 64.9672,19.6345 C65.0102,19.6035 65.0552,19.5765 65.0962,19.5425 C71.1062,15.2535 77.5182,11.5195 84.3382,8.7375 C90.5002,14.0175 102.9232,12.2285 105.1292,3.8955 C125.8012,2.7035 146.2082,12.0365 156.6222,31.3305 C158.5962,34.9885 161.5112,40.4635 160.6062,44.7425 C160.1842,46.7375 158.7882,48.4055 158.5092,50.4535 C158.2822,52.1265 158.7602,53.7475 159.1892,55.3495 M144.3432,84.8845 C142.1012,79.5795 135.5262,78.5035 130.2942,80.2485 C127.2882,75.2635 121.2402,75.4535 117.3972,78.9745 C115.3212,76.1805 113.6982,72.9235 112.5552,69.6065 C119.9602,76.0095 131.0562,78.7125 140.4172,78.7455 C142.9092,78.7555 145.4632,78.5565 147.9342,78.1035 C147.2372,80.7175 146.1472,83.1215 144.3432,84.8845 M129.8232,83.9105 C133.4152,82.1595 139.4672,82.7325 141.0442,86.9965 C140.7342,87.1155 140.4132,87.2225 140.0772,87.3165 C135.3042,88.6445 129.6622,87.7395 125.2442,85.6915 C123.2732,84.7785 121.4912,83.4535 119.8922,81.8655 C121.4062,81.4215 122.9202,80.9785 124.4342,80.5355 C125.3112,81.0415 126.0802,81.6675 126.7402,82.4125 C127.0182,82.6985 127.3222,83.0305 127.4842,83.4005 C127.9052,84.3615 129.0262,84.2985 129.8232,83.9105 M138.8742,97.7555 C126.8102,102.6565 110.8942,98.6805 104.4982,86.7205 C103.4502,84.7615 100.1222,86.9065 101.0692,88.6775 C102.2622,90.9065 103.7412,92.8815 105.4362,94.6095 C103.9412,95.6475 100.6582,95.9615 99.3422,96.2435 C95.4362,97.0785 91.4982,97.7665 87.6822,98.9805 C80.9292,101.1285 74.7102,104.8765 71.6142,111.5025 C67.8002,119.6645 67.5102,129.5735 68.3582,138.3825 C69.1002,146.0775 70.7042,154.8655 75.1052,161.4105 C79.1652,167.4495 86.3082,167.0735 92.1102,163.3945 C96.4222,160.6615 99.8682,156.6105 103.4302,153.0125 C105.0012,151.4265 106.7732,149.9205 108.2402,148.2415 C108.4682,148.0415 108.6962,147.8415 108.9242,147.6425 C108.9772,147.6175 109.0162,147.5965 109.0632,147.5735 C109.0872,147.7065 109.1022,147.8435 109.0942,147.9915 C108.2972,163.2045 98.4602,183.7865 81.5512,182.1775 C74.1822,177.4925 66.8662,172.4755 60.7152,166.2305 C58.0982,163.5735 54.9302,160.3025 53.8732,156.6055 C53.7912,156.3195 53.2382,154.6715 53.5692,154.4635 C53.0932,154.7635 58.5492,158.1095 59.2162,158.5235 C61.4812,159.9315 65.3602,162.5415 67.1692,159.0465 C67.8802,157.6735 67.3942,156.0235 66.9852,154.6395 C65.8102,150.6615 63.9052,146.8755 62.4342,143.0015 C60.2342,137.2065 59.3502,131.4395 59.1732,125.2495 C59.0192,119.8625 59.2972,114.3245 60.0192,108.8005 C60.0412,108.7445 60.0692,108.6915 60.0912,108.6345 C60.2782,108.1655 60.2962,107.7815 60.2012,107.4745 C61.9782,95.1165 66.0192,82.9025 72.6522,72.7065 C78.9872,62.9725 94.7702,50.5325 105.9922,61.1605 C106.1272,61.2875 106.2762,61.3725 106.4292,61.4395 C106.6532,61.9045 106.8802,62.3535 107.1112,62.7915 C108.4372,75.3915 116.2432,88.4805 129.3212,90.9365 C139.5562,92.8595 147.4922,88.9185 150.8452,79.9565 C151.0562,87.7115 146.2622,94.7535 138.8742,97.7555 M91.8052,131.2455 C90.8342,121.3765 98.5622,117.2515 102.9602,109.8395 C103.3142,109.2435 103.6632,107.9645 104.1782,107.5205 C103.8102,107.8385 103.1432,111.1475 102.9922,112.5175 C102.6602,115.5335 103.2412,118.4185 104.5282,121.1615 C107.4332,127.3525 111.0632,132.6425 111.0292,139.7455 C111.0292,139.8535 111.0552,139.9435 111.0772,140.0355 C111.2762,146.1765 119.7622,140.2145 122.5852,139.2215 C128.8542,137.0165 132.2512,139.7295 137.7032,142.1505 C140.9502,143.5925 144.0642,142.9265 147.4102,142.0955 C149.1782,141.6565 151.0722,140.6865 152.8582,140.4435 C153.1222,140.4075 153.3362,140.3295 153.5022,140.2455 C153.3472,140.4175 153.1492,140.6645 152.9012,141.0165 C152.4882,141.6035 152.1032,142.2085 151.7052,142.8065 C149.0512,146.7905 146.5542,150.6065 142.2992,153.0075 C135.7542,156.7035 130.4572,157.9495 123.2502,154.9905 C119.0962,153.2855 114.2802,151.1895 112.7522,146.6495 C112.7112,146.3335 112.6462,146.0285 112.5502,145.7385 C111.8522,143.6225 110.4632,143.3595 108.8522,144.0175 C108.6002,144.0375 108.3232,144.1125 108.0242,144.2565 C99.3312,148.4705 92.5532,138.8415 91.8052,131.2455 M28.2522,135.3995 C28.5972,135.2975 28.9472,135.2055 29.2892,135.0985 C39.9142,131.7655 49.4882,125.6545 55.7272,116.6915 C55.3372,122.1955 55.3702,127.7455 56.0202,133.1925 C56.9322,140.8265 60.2272,147.4715 62.8662,154.6165 C63.0422,155.0915 63.2142,155.9025 63.4562,156.3935 C62.8022,156.0485 62.1432,155.7045 61.5202,155.3185 C59.4072,154.0045 56.8432,151.7465 54.2552,151.5055 C51.4642,151.2455 49.8642,153.3485 49.9022,155.9585 C49.9602,159.9715 53.2452,163.9275 55.7252,166.7495 C59.1682,170.6695 63.1552,174.1215 67.3672,177.2895 C50.5002,168.5215 36.5382,151.5895 28.2522,135.3995 M17.8132,21.5365 C16.2162,21.3865 8.1122,22.8215 7.7042,21.0705 C7.5072,20.2295 10.4342,18.0205 11.2182,17.3815 C20.0062,10.2235 31.1812,8.3825 42.1902,9.9865 C47.7282,10.7925 57.8422,12.7865 61.6552,18.1405 C53.2952,24.2525 45.4432,31.2805 38.8132,39.2665 C34.7502,30.8865 27.4862,22.4395 17.8132,21.5365 M101.4432,4.2165 C99.7782,8.5445 93.0832,9.0555 88.9032,7.0435 C89.2462,6.9295 89.5852,6.8075 89.9292,6.6985 C93.7132,5.4955 97.5732,4.6735 101.4432,4.2165 M162.1502,50.9235 C162.1712,49.2875 162.9822,48.0465 163.5552,46.5375 C165.1972,42.2185 163.8712,37.9885 162.1902,33.8865 C152.0592,9.1615 125.0602,-3.3395 99.4082,0.9555 C86.8892,3.0525 75.2392,8.6505 64.8692,15.8435 C60.5552,9.7905 50.1792,7.4445 43.6892,6.4905 C31.8732,4.7525 20.1752,6.7355 10.4812,13.9665 C8.2312,15.6455 1.5102,20.5875 4.8802,24.1205 C7.9242,27.3125 15.2162,24.5235 19.0532,25.5115 C27.0912,27.5805 32.8762,35.4555 36.0762,42.7135 C34.7782,44.4235 33.5302,46.1715 32.3522,47.9645 C22.8502,62.4315 15.8832,81.1995 16.6362,98.8555 C14.4712,102.9585 12.9092,107.3685 12.1242,111.9585 C11.6002,115.0275 12.2802,119.2845 10.1892,121.7995 C7.6442,124.8615 0.2422,127.6045 0.0042,132.2925 C-0.1768,135.8655 5.4622,136.8055 8.0272,137.1965 C13.4322,138.0195 19.0022,137.6015 24.3562,136.4145 C33.6972,155.1415 49.1202,172.4355 68.0742,181.7575 C74.5342,184.9355 81.7712,187.2635 88.9472,185.2465 C97.6492,182.8015 103.6952,175.1875 107.3152,167.2745 C109.3342,162.8595 110.5422,158.1315 111.6672,153.4255 C111.7192,153.2035 111.7812,152.9665 111.8442,152.7265 C113.5882,154.5385 115.8782,155.8655 118.2192,156.9915 C123.4392,159.5035 128.8302,161.5065 134.6402,159.9955 C144.4442,157.4465 150.7922,150.6855 155.9042,142.3355 C157.4032,139.8875 158.1952,136.1675 154.1992,136.4845 C149.3602,136.8675 145.1102,140.8645 140.0072,138.9455 C134.9832,137.0565 131.7202,133.8555 125.9682,134.8375 C123.8772,135.1955 121.8862,135.9285 119.9432,136.7595 C119.3432,137.0155 114.6552,139.3805 114.6922,138.9115 C114.7102,138.6785 114.6912,138.4835 114.6572,138.3045 C114.6292,135.1655 113.9892,132.0915 112.9432,129.1315 C110.5892,122.4645 106.0492,117.9835 106.8722,110.5605 C107.1302,108.2285 106.9032,103.1045 103.1512,104.3825 C100.8752,105.1585 99.7282,109.0915 98.4162,110.7725 C95.1792,114.9195 91.3522,118.0395 89.4362,123.1205 C87.4992,128.2595 87.7062,134.0775 89.8682,139.1235 C92.2882,144.7745 97.4152,148.5275 103.0602,148.6275 C101.6472,150.1095 100.5112,151.4685 100.0452,151.9415 C95.6892,156.3575 90.1712,163.5615 83.1552,162.5145 C79.3582,161.9485 77.5572,158.2135 76.1722,154.9995 C72.0672,145.4765 70.8432,133.9515 72.0102,123.7095 C72.6402,118.1835 73.8922,111.8885 77.9942,107.8195 C81.7302,104.1145 87.0652,102.4585 92.0502,101.2445 C96.2362,100.2245 104.0052,100.0795 107.7832,96.7335 C116.4762,103.7235 129.2632,105.2545 139.7032,100.9545 C149.3732,96.9725 156.0622,86.8005 154.2072,76.2495 C159.9102,73.7905 164.1602,69.3085 164.3622,61.9095 C164.4192,59.7825 163.9072,57.8765 163.3322,55.8335 C162.8892,54.2635 162.1292,52.5605 162.1502,50.9235" id="Fill-17" fill="#FFFFFF" mask="url(#mask-2)"></path>
                </g>
                <path d="M73.9451,77.0916 C70.8481,82.2066 63.1651,79.9906 59.3651,84.7746 C56.7451,88.0706 55.4421,92.4846 53.1181,96.0286 C52.4381,97.0666 51.4781,98.9036 50.3971,99.5426 C50.0951,99.7216 49.9791,99.9006 49.9361,100.0086 C49.9321,99.9816 49.9351,99.9536 49.9291,99.9256 C48.1591,90.9146 52.1731,81.8356 57.9181,75.0146 C61.0011,71.3546 64.6951,69.0116 69.6021,69.2316 C74.5451,69.4536 76.6101,72.6906 73.9451,77.0916 M59.8141,68.8836 C50.5011,75.6706 44.0401,89.5726 46.2961,101.0516 C46.3141,101.1436 46.3441,101.2186 46.3721,101.2986 C46.3811,101.3546 46.3831,101.4106 46.3991,101.4666 C48.6411,109.3896 57.4091,95.2206 58.2571,93.6946 C60.4071,89.8226 61.3881,85.6016 66.1211,84.4006 C68.3521,83.8346 70.6821,83.7046 72.7411,82.5676 C75.9671,80.7856 78.3611,76.9976 78.7941,73.3546 C80.0361,62.9266 65.1771,64.9756 59.8141,68.8836" id="Fill-20" fill="#FFFFFF"></path>
                <path d="M118.1863,76.9461 C116.8733,74.9651 114.7513,73.4281 112.6373,72.1751 C109.8213,70.5071 107.3083,69.6671 104.7123,69.4791 C104.6373,69.4211 104.5573,69.3651 104.4603,69.3191 C105.0233,60.0611 115.2333,51.0631 124.1143,55.6341 C134.5843,61.0211 126.7123,73.8571 118.1863,76.9461 M126.4183,52.4281 C115.4463,46.7331 103.1103,56.8651 101.0913,68.0661 C99.7683,67.3931 98.5403,66.5421 97.3193,65.6081 C95.7383,64.4001 93.2473,67.4631 95.0143,68.8131 C95.7733,69.3921 96.5373,69.9261 97.3173,70.4151 C97.1873,70.4511 97.0603,70.4831 96.9283,70.5211 C94.8523,71.1201 94.7443,74.6231 97.2533,73.9001 C101.7623,72.6001 104.8283,72.4011 109.0503,74.6601 C111.5743,76.0101 116.1203,78.4271 115.8833,81.9061 C115.7133,84.4131 119.3413,83.7231 119.4803,81.6741 C119.5203,81.0911 119.4913,80.5361 119.4083,80.0051 C130.1233,75.6401 139.5733,59.2561 126.4183,52.4281" id="Fill-22" fill="#FFFFFF"></path>
                <path d="M118.6389,63.9559 C117.7479,64.1079 116.8859,63.4139 116.7129,62.4039 C116.5399,61.3939 117.1209,60.4519 118.0119,60.2999 C118.9019,60.1469 119.7639,60.8419 119.9369,61.8519 C120.1109,62.8599 119.5289,63.8039 118.6389,63.9559 M120.2419,58.8449 C116.5569,58.4269 112.6969,60.5119 111.8549,64.2439 C111.0139,67.9719 113.3579,72.0379 116.9109,73.1049 C117.6459,73.3259 118.3889,73.4039 119.1159,73.3679 C117.7399,72.8329 116.6089,70.4879 116.7779,68.9779 C117.1179,65.9479 119.4359,65.7799 121.1469,66.6889 C122.6949,67.5129 123.6729,69.2629 123.3859,70.9759 C123.3369,71.2659 123.2379,71.5309 123.1189,71.7839 C124.1279,70.9349 125.6769,69.4049 126.0859,68.0329 C127.1779,64.3719 124.8319,59.3649 120.2419,58.8449" id="Fill-24" fill="#FFFFFF"></path>
                <path d="M72.7063,16.9227 C73.7793,14.3307 78.1943,14.0597 80.4023,15.2937 C83.9533,17.2777 85.5303,21.9867 86.2143,26.6317 C83.6043,24.7317 80.6143,25.9157 77.7913,24.6127 C75.3873,23.5037 71.4433,19.9717 72.7063,16.9227 M77.1403,28.4697 C79.3133,29.1287 82.1503,28.4107 83.9483,29.8847 C85.3143,31.0037 85.9983,32.8527 86.7413,34.4107 C86.8323,35.0557 87.2533,35.3307 87.7843,35.3387 C89.0103,35.5757 90.6653,34.2257 90.3473,32.9117 C90.3183,25.4897 88.5893,11.6177 79.0273,11.0467 C72.8183,10.6747 66.7303,15.7487 69.7173,22.1517 C71.1093,25.1337 74.0123,27.5227 77.1403,28.4697" id="Fill-26" fill="#FFFFFF"></path>
                <path d="M114.6609,16.0613 C118.0989,18.0223 116.2569,21.8523 113.3899,23.3343 C110.3979,24.8813 106.9489,24.2683 103.9769,26.0563 C103.0539,26.6123 102.1889,27.2853 101.3859,28.0403 C103.6239,20.5363 107.8489,12.1733 114.6609,16.0613 M95.9189,36.9503 C95.9209,36.9933 95.9309,37.0283 95.9359,37.0683 C95.9449,37.1233 95.9489,37.1803 95.9639,37.2313 C96.1459,37.9983 96.8959,38.2333 97.6689,38.0753 C98.2909,37.9863 98.9169,37.6333 99.2699,37.0143 C99.3099,36.9513 99.3399,36.8813 99.3719,36.8143 C99.3809,36.7943 99.3929,36.7783 99.4019,36.7563 C99.4049,36.7493 99.4079,36.7433 99.4109,36.7353 C99.4239,36.7043 99.4389,36.6733 99.4509,36.6403 C100.5089,34.0133 102.1989,31.2543 104.4749,29.5453 C108.0509,26.8613 112.9619,27.9843 116.6259,24.9943 C121.3139,21.1683 121.6849,13.7473 114.9299,12.1203 C102.1879,9.0503 97.2729,27.2973 95.9399,36.5353 C95.9359,36.5623 95.9389,36.5843 95.9359,36.6113 C95.9189,36.7313 95.9119,36.8443 95.9189,36.9503" id="Fill-28" fill="#FFFFFF"></path>
            </g>
        </g>
    </g>
</svg>