<?xml version="1.0" encoding="UTF-8"?>
<svg width="279px" height="170px" viewBox="0 0 279 170" version="1.1" xmlns="http://www.w3.org/2000/svg" xmlns:xlink="http://www.w3.org/1999/xlink">
    <!-- Generator: Sketch 49 (51002) - http://www.bohemiancoding.com/sketch -->
    <title>Page 1</title>
    <desc>Created with Sketch.</desc>
    <defs>
        <polygon id="path-1" points="0 0.614654438 7.39076667 0.614654438 7.39076667 10.2039969 0 10.2039969"></polygon>
        <polygon id="path-3" points="0.812754411 0.226 176.302 0.226 176.302 48.4624574 0.812754411 48.4624574"></polygon>
    </defs>
    <g id="Page-1" stroke="none" stroke-width="1" fill="none" fill-rule="evenodd">
        <g id="POST--VIDEO-Copy" transform="translate(-151.000000, -608.000000)">
            <g id="Page-1" transform="translate(151.000000, 607.000000)">
                <path d="M98.5898,84.4331 C95.8228,89.8621 90.2178,91.3341 84.5958,91.8071 C86.3048,86.0671 87.3088,79.8871 86.0238,74.4831 C86.1098,74.3811 86.1798,74.2661 86.2228,74.1351 C87.6288,69.8471 90.5058,67.8651 94.5618,66.6301 C95.8348,66.2421 96.5868,66.2261 97.5368,65.2571 C98.5668,64.2071 98.4778,62.7681 99.2118,61.6281 C99.9298,60.5131 99.2788,60.4741 99.9568,61.8871 C100.5238,63.0691 100.6298,64.6641 100.8168,65.9461 C101.6828,71.8951 101.3828,78.9521 98.5898,84.4331 M71.2338,68.5611 C73.0758,66.0801 75.4318,65.9541 77.9198,67.3511 C75.8048,70.0781 72.9338,71.9401 68.7498,71.7551 C66.5958,71.6601 64.9178,70.8941 63.5698,69.7351 C65.4848,68.4751 68.2928,67.3761 70.0158,68.8641 C70.3848,69.1831 70.9878,68.8911 71.2338,68.5611 M79.0478,65.7221 C76.0258,64.0501 73.0138,64.2891 70.6598,66.8801 C68.2138,65.4701 64.7038,66.9801 62.4508,68.6121 C61.1518,67.0651 60.2298,65.1051 59.5038,63.0921 C61.3038,64.1381 63.2938,64.7171 65.4088,64.8891 C69.1098,65.1881 73.0138,64.5061 76.5258,63.3721 C78.0278,62.8871 79.5448,62.1161 81.0958,61.6051 C80.5038,63.0351 79.8358,64.4371 79.0478,65.7221 M79.7718,100.5511 C74.9308,112.0971 66.5868,121.8791 54.3918,125.6651 C49.8968,127.0611 45.1788,127.8241 40.4908,128.1651 C39.2028,128.2601 37.6168,128.5371 36.3218,128.3441 C34.5028,128.0731 34.2238,128.3071 35.1918,126.2791 C35.7398,125.1331 36.3218,124.0381 36.9098,122.9601 C37.0858,122.9671 37.2888,122.8941 37.5098,122.6841 C45.9818,114.6371 51.7898,103.9971 53.8578,92.4961 C53.8728,92.4101 53.8598,92.3481 53.8598,92.2761 C54.3518,91.0681 54.7378,89.8131 54.9718,88.5021 C55.7188,84.3121 55.2728,79.8551 54.2158,75.7541 C52.8988,70.6391 49.2618,63.8621 57.0578,61.5961 C58.0118,64.7251 59.2748,67.8221 61.2348,70.0831 C61.2278,70.5321 61.5088,70.9011 61.9358,70.8311 C63.8638,72.6981 66.4028,73.7971 69.8478,73.5161 C74.3018,73.1521 77.2928,70.8861 79.5048,67.7891 C79.8828,67.5791 80.1818,67.1571 80.1868,66.7741 C81.2688,65.0541 82.1548,63.1381 82.9388,61.1711 C83.5088,61.0951 84.0828,61.0661 84.6658,61.1431 C85.6108,61.2681 86.3118,59.4731 85.1548,59.3191 C82.3038,58.9401 79.7418,60.5201 77.1308,61.4191 C71.9448,63.2031 65.1068,64.3951 60.2198,61.2301 C57.9858,59.7831 56.5388,57.3391 53.7668,56.8241 C50.4968,56.2161 47.9428,58.3841 45.8948,60.6291 C45.0498,61.5561 46.2388,62.4951 47.0728,61.5801 C49.5718,58.8391 52.7138,58.0881 55.8018,60.0941 C55.8618,60.1331 55.9158,60.1851 55.9758,60.2281 C50.3508,62.4961 49.6918,68.0581 51.5958,73.7531 C54.1138,81.2891 54.9598,89.8901 49.6418,96.5081 C46.7068,100.1601 42.5788,102.9211 38.2678,104.6951 C37.1068,105.1731 33.4718,106.9641 33.1268,104.4011 C33.0748,104.0181 34.2988,102.0031 34.4358,101.4201 C35.7228,95.9291 34.8538,90.4051 38.6418,85.6051 C39.3348,84.7271 40.1688,83.9151 41.0938,83.2101 C41.4948,83.2171 41.9898,82.9051 42.1728,82.4721 C43.3688,81.7271 44.6728,81.1621 46.0118,80.8751 C46.9668,80.6701 47.2868,78.8401 46.0658,79.1021 C44.6598,79.4031 43.3808,79.9001 42.2188,80.5501 C42.1568,76.8361 42.1618,73.0101 42.9488,69.3921 C43.0408,68.9741 43.3038,68.1911 43.4878,67.6441 C44.3108,69.1201 45.3058,70.4811 46.4158,71.6521 C47.0938,72.3671 48.3678,70.8301 47.6718,70.0951 C42.7758,64.9301 41.5998,57.6861 45.0098,51.4081 C46.4468,48.7621 48.0668,45.7611 49.7538,43.2841 C56.3998,33.5301 69.5798,33.9111 79.1038,39.0341 C83.2578,41.2691 84.5948,45.0821 85.4278,49.5551 C85.9678,52.4531 86.6378,54.1221 87.6988,56.7651 C89.3518,60.8751 88.1918,66.1871 86.3288,70.1611 C85.9198,71.0331 85.4398,71.8101 84.9048,72.5161 C84.3978,72.5831 83.8558,73.1261 83.9078,73.6751 C81.3248,76.3251 77.7488,77.6161 73.8298,78.2491 C72.8608,78.4061 72.5418,80.2211 73.7758,80.0221 C77.8668,79.3611 81.4678,77.6061 84.2648,75.0641 C85.5878,80.3601 84.5668,86.5211 82.8288,92.2161 C82.4808,92.5701 82.2888,93.1241 82.4388,93.4511 C81.6158,95.9711 80.6808,98.3811 79.7718,100.5511 M41.0198,140.5311 C40.8668,143.8881 38.5548,146.4271 37.7018,149.5251 C37.3148,150.9351 37.9518,152.0161 37.7838,153.2641 C37.7278,153.6871 38.3828,153.8181 37.9708,154.0821 C37.6288,154.3021 35.8158,151.8331 35.5338,151.4551 C33.6878,148.9761 32.0338,145.9251 31.3338,142.9201 C30.5078,139.3711 31.5858,136.5341 32.6758,133.2571 C32.9298,132.4931 33.4438,131.2361 33.4018,130.1851 C34.0658,130.4271 34.9518,130.5121 35.9288,130.5011 C39.3218,131.9051 41.1698,137.2131 41.0198,140.5311 M28.1798,130.7881 C23.2558,134.2641 16.2328,135.1951 12.8018,129.0971 C12.6288,128.7891 11.4218,126.4391 11.5718,125.7411 C11.6678,125.2981 11.6748,125.0161 11.6488,124.8361 C11.8028,124.9381 12.0838,125.0381 12.5718,125.0711 C13.7078,125.1461 14.5308,125.8591 15.7548,125.7771 C17.4438,125.6631 19.1778,124.4861 20.6938,123.8631 C23.6648,122.6431 33.3218,120.6211 32.6818,126.9821 C32.4258,127.3461 32.2228,127.7161 32.1638,128.0631 C32.1348,128.2421 32.1128,128.3881 32.0968,128.5211 C30.7698,128.3431 29.0138,130.1991 28.1798,130.7881 M51.1848,96.9631 C48.9738,105.1011 44.8338,112.6741 39.1178,118.8891 C40.3438,116.5341 41.4298,114.1051 42.0758,111.3001 C42.6078,108.9951 43.0028,106.5591 42.9888,104.1741 C46.1518,102.3031 49.0158,99.8631 51.1848,96.9631 M34.1938,68.5301 C31.4438,66.9971 28.9768,67.3381 25.9458,67.6701 C24.1948,67.8621 22.0108,68.1811 24.3938,66.4581 C26.0628,65.2521 28.4258,64.4961 30.3328,63.8881 C33.8898,62.7551 37.8838,62.2191 41.5958,62.8861 C41.8538,63.9281 42.2078,64.9511 42.6428,65.9391 C41.9908,66.6301 41.7028,67.7531 41.4738,68.6041 C40.9338,70.6121 40.6788,72.7121 40.5608,74.8311 C38.8248,72.3641 36.8108,69.9891 34.1938,68.5301 M98.0138,60.1021 C96.9508,62.1181 96.9128,63.7861 94.6148,64.8571 C93.0478,65.5871 91.5158,65.8241 89.9948,66.7811 C89.7688,66.9231 89.5618,67.0791 89.3498,67.2311 C90.1158,64.8771 90.4418,62.2941 90.2178,59.5471 C90.0168,57.0721 89.0248,55.5751 88.1248,53.4321 C87.1518,51.1121 87.1548,48.4351 86.4968,45.9861 C85.2828,41.4761 83.0508,38.5411 78.7128,36.6591 C68.0058,32.0141 54.9608,32.1851 48.1278,42.9901 C45.6208,46.9541 42.2158,51.8891 41.3368,56.5631 C41.0668,58.0021 41.0518,59.4781 41.2348,60.9451 C37.6068,60.5161 33.8468,61.0161 30.3878,62.1151 C27.6658,62.9791 22.5508,64.4281 21.0998,67.2041 C19.6478,69.9821 22.9798,69.7451 24.8408,69.5661 C28.1038,69.2511 30.8848,68.6881 33.8198,70.6341 C36.6468,72.5071 38.6478,75.4101 40.4718,78.2051 C40.4708,79.3791 40.4878,80.5451 40.5098,81.6941 C36.4458,84.8311 34.1638,90.0551 33.4258,95.2121 C33.0308,97.9721 33.2918,100.9251 31.9478,103.4501 C31.4848,104.3201 30.0588,105.5331 30.4858,106.7371 C31.2488,108.8871 35.1268,107.5641 36.6418,107.0661 C38.2008,106.5521 39.7568,105.9021 41.2668,105.1281 C41.2018,109.9891 39.6528,115.0461 37.5918,119.3311 C36.6278,121.3361 35.4638,123.2271 34.1988,125.0551 C33.5738,122.5321 31.2158,120.8451 28.3158,120.4271 C25.9848,120.0921 23.8678,120.7791 21.7448,121.6471 C20.2818,122.2461 18.8098,123.1561 17.2868,123.5671 C15.1068,124.1561 14.3698,123.0141 12.4378,122.8251 C5.8748,122.1821 12.7628,133.1521 15.5238,134.4891 C19.4228,136.3791 23.8518,135.4341 27.3688,133.2341 C28.4748,132.5421 30.9588,129.7951 31.5988,131.4731 C32.0898,132.7601 29.5338,137.4781 29.3568,139.0891 C28.7888,144.2271 31.5248,149.8491 34.7788,153.6971 C35.8298,154.9381 38.3878,157.6861 39.8998,155.3571 C40.5928,154.2881 39.8188,153.8651 39.7038,152.8451 C39.2278,148.6191 41.7908,145.8001 42.5278,141.7221 C43.1518,138.2721 41.9968,133.0221 39.1358,130.2431 C40.5108,130.0631 41.7458,129.8461 42.4428,129.7721 C47.3968,129.2481 52.3318,128.2701 57.0098,126.5331 C68.6978,122.1941 76.8358,111.8141 81.4628,100.5281 C82.3318,98.4071 83.2278,96.0741 84.0248,93.6371 C89.9708,93.1511 95.9668,91.6141 99.3318,86.2411 C103.2118,80.0471 103.5418,71.3791 102.3978,64.3961 C102.0388,62.2141 100.4708,55.4401 98.0138,60.1021" id="Fill-1" fill="#000000"></path>
                <path d="M9.3105,75.6206 C9.2695,74.0676 11.3335,73.1396 13.1705,72.6086 C12.7465,73.2706 12.4205,73.9936 12.1965,74.8766 C11.9915,75.6826 11.7225,77.2306 10.8325,77.5916 C9.8405,77.9926 9.3305,76.3406 9.3105,75.6206 M12.1145,78.5156 C13.0535,77.5796 13.4945,76.2916 13.8165,75.0356 C14.1685,73.6626 14.6605,72.9226 15.7015,71.8966 C15.7135,71.8846 15.7185,71.8696 15.7305,71.8566 C16.1825,71.4206 16.2825,70.6016 15.7855,70.3886 C15.7695,70.3756 15.7525,70.3706 15.7375,70.3596 C15.7265,70.3566 15.7185,70.3506 15.7075,70.3476 C15.5585,70.2626 15.3725,70.2616 15.1605,70.3796 C12.1965,70.9646 7.1075,72.7036 7.6245,76.4876 C7.9635,78.9626 10.0925,80.5256 12.1145,78.5156" id="Fill-3" fill="#000000"></path>
                <path d="M22.7763,149.8999 C22.1043,150.4959 21.2763,150.3589 21.1143,149.3849 C20.8813,147.9939 22.1843,146.3019 23.0093,145.2269 C22.9883,145.6509 22.9863,146.0749 23.0213,146.4969 C23.1193,147.6519 23.8183,148.9739 22.7763,149.8999 M25.0203,141.7199 C24.7043,141.4149 24.1113,141.4619 23.7873,141.9599 C21.9643,143.8459 17.5693,148.7649 20.0093,151.4669 C21.4083,153.0169 23.6923,151.5099 24.5223,150.1059 C25.2113,148.9429 25.0843,147.9269 24.8393,146.6679 C24.6603,145.7379 24.6663,144.7789 24.8353,143.8479 C24.8913,143.5359 24.9723,143.2279 25.0593,142.9239 C25.0673,142.8969 25.1173,142.7549 25.1493,142.6579 C25.3853,142.2719 25.2893,141.9119 25.0203,141.7199" id="Fill-5" fill="#000000"></path>
                <path d="M33.7314,168.5722 C32.3254,169.7692 31.3244,167.5942 31.2634,166.4682 C31.1874,165.0682 31.7624,163.8962 32.2114,162.6072 C32.3314,162.2652 32.4374,161.9182 32.5404,161.5692 C32.5904,161.7152 32.6314,161.8652 32.6854,162.0102 C33.3274,163.7532 35.6874,166.9072 33.7314,168.5722 M34.0464,160.2392 C33.7334,159.2872 33.4644,158.3172 33.2524,157.3382 C33.2514,157.3292 33.2454,157.3262 33.2434,157.3172 C33.2204,157.2032 33.1804,157.1142 33.1194,157.0502 C33.1044,157.0312 33.0904,157.0132 33.0754,156.9972 C33.0504,156.9782 33.0254,156.9632 32.9974,156.9492 C32.6834,156.7452 32.1914,156.9532 31.8674,157.3282 C31.8574,157.3392 31.8494,157.3512 31.8394,157.3622 C31.7854,157.4292 31.7344,157.4972 31.6934,157.5722 C31.6564,157.6362 31.6334,157.7032 31.6104,157.7722 C31.5974,157.8132 31.5854,157.8522 31.5774,157.8942 C31.5724,157.9252 31.5544,157.9532 31.5524,157.9842 C31.3474,161.1582 29.2594,164.0662 29.5394,167.2412 C29.7154,169.2462 31.3484,171.5042 33.5894,170.5472 C35.6044,169.6872 36.5024,166.8632 36.0264,164.8532 C35.6474,163.2562 34.5664,161.8142 34.0464,160.2392" id="Fill-7" fill="#000000"></path>
                <g id="Group-11" transform="translate(0.000000, 112.774000)">
                    <mask id="mask-2" fill="white">
                        <use xlink:href="#path-1"></use>
                    </mask>
                    <g id="Clip-10"></g>
                    <path d="M2.9501,2.4633 C3.4341,2.3903 4.4281,2.4003 4.6861,2.9423 C4.8151,3.2143 4.6931,3.3783 4.5951,3.6403 C4.3381,4.3233 4.0401,4.8853 3.9761,5.6303 C3.9471,5.9703 3.9691,6.3103 4.0161,6.6473 C3.7751,6.4633 3.5361,6.2763 3.3101,6.0773 C2.2861,5.1793 0.6071,2.8193 2.9501,2.4633 M7.3461,9.3333 C7.3561,9.2963 7.3681,9.2603 7.3761,9.2233 C7.3921,9.1423 7.3931,9.0643 7.3881,8.9853 C7.3871,8.9523 7.3851,8.9203 7.3781,8.8883 C7.3641,8.8193 7.3361,8.7553 7.3001,8.6933 C7.2801,8.6583 7.2591,8.6253 7.2311,8.5933 C7.2081,8.5663 7.2001,8.5313 7.1711,8.5063 C6.7481,8.1383 6.4021,7.6683 6.1371,7.1763 C5.4281,5.8593 5.8081,4.9553 6.2861,3.6473 C6.8491,2.1023 5.9271,0.8643 4.3571,0.6513 C2.7641,0.4353 1.0061,1.1823 0.2971,2.6773 C-0.5549,4.4743 0.5651,6.2653 1.8721,7.4713 C3.0861,8.5913 4.5881,9.4873 6.0951,10.1613 C6.1051,10.1663 6.1161,10.1633 6.1261,10.1673 C6.1991,10.1923 6.2701,10.2053 6.3461,10.2033 C6.3981,10.2053 6.4481,10.2033 6.4991,10.1933 C6.5311,10.1853 6.5601,10.1753 6.5921,10.1633 C6.6811,10.1333 6.7641,10.0933 6.8461,10.0353 C6.8461,10.0343 6.8471,10.0333 6.8481,10.0323 C6.9401,9.9653 7.0231,9.8883 7.0961,9.7963 C7.1131,9.7763 7.1251,9.7563 7.1401,9.7363 C7.1891,9.6693 7.2331,9.6023 7.2691,9.5273 C7.3031,9.4633 7.3241,9.4003 7.3461,9.3333" id="Fill-9" fill="#000000" mask="url(#mask-2)"></path>
                </g>
                <path d="M72.1288,52.0166 C70.9288,48.5026 69.2108,40.8646 74.8168,41.5516 C77.5198,41.8826 80.4718,43.4966 80.4478,46.5366 C80.4338,48.4516 79.4618,50.3146 78.3208,51.8416 C76.3728,51.3756 74.1958,51.5626 72.1288,52.0166 M79.8148,52.3646 C81.2708,50.3086 82.4078,47.7776 82.1248,45.2646 C81.7358,41.8216 78.3068,39.9806 75.1248,39.6956 C68.0478,39.0596 68.8438,47.7086 70.3228,52.4816 C69.9708,52.5856 69.6218,52.6926 69.2838,52.8046 C68.3738,53.1056 68.0558,54.9666 69.2308,54.5776 C73.0798,53.3016 78.5368,52.1236 81.1948,56.1196 C81.7918,57.0156 83.2548,55.6746 82.7198,54.8706 C81.9298,53.6836 80.9328,52.8836 79.8148,52.3646" id="Fill-12" fill="#000000"></path>
                <path d="M63.6689,51.8935 C61.3519,51.3225 59.0259,51.2425 56.7729,51.7265 C55.8839,47.7625 55.2309,39.5835 61.6059,41.1065 C66.7099,42.3245 65.7149,48.3985 63.6689,51.8935 M61.6759,39.1955 C54.2209,38.1345 53.9569,47.0225 55.0169,52.2245 C53.9759,52.5935 52.9539,53.0845 51.9639,53.7205 C51.1059,54.2695 51.2519,56.0295 52.3479,55.3265 C56.3589,52.7545 60.7209,52.6855 65.0869,54.3745 C65.9849,54.7225 66.9899,53.0105 65.9839,52.6215 C65.7069,52.5135 65.4289,52.4145 65.1499,52.3205 C67.6659,47.6735 68.4679,40.1625 61.6759,39.1955" id="Fill-14" fill="#000000"></path>
                <path d="M152.1454,25.5961 C148.5694,23.7151 134.9084,26.9211 137.1354,19.8591 C138.6624,15.0191 153.3064,15.6121 151.9964,21.4381 C151.7084,22.7121 153.4164,22.4951 153.6474,21.4731 C155.5914,12.8291 135.5644,12.1571 135.2554,21.5621 C135.0494,27.8541 143.7794,26.2231 147.9654,26.5521 C150.3194,26.7371 154.2054,28.1011 153.3474,31.3751 C152.8994,33.0871 150.1924,33.5711 148.7604,33.8401 C145.7014,34.4161 140.4984,34.6861 138.3324,31.9231 C137.6654,31.0731 136.2154,32.4171 136.8074,33.1721 C139.8324,37.0291 147.2134,36.5061 151.2854,34.9011 C155.4864,33.2461 156.6924,27.9881 152.1454,25.5961" id="Fill-16" fill="#000000"></path>
                <path d="M169.411,17.8364 C170.896,18.3024 172.311,19.2704 173.378,20.4034 C174.053,21.1204 175.328,19.5844 174.634,18.8474 C172.708,16.8014 169.726,15.3294 166.885,15.7894 C162.791,16.4514 159.624,20.6284 158.817,24.5084 C158.075,28.0754 159.193,31.7874 162.364,33.7654 C166.073,36.0784 171.133,36.3134 174.407,33.1494 C175.214,32.3704 174.55,30.9054 173.604,31.8194 C170.689,34.6364 165.931,34.0464 162.87,31.7064 C160.466,29.8674 159.879,26.6844 160.63,23.8654 C161.636,20.0894 165.316,16.5514 169.411,17.8364" id="Fill-18" fill="#000000"></path>
                <path d="M182.7987,24.27 L182.7987,20.796 C182.7987,19.921 182.5317,18.472 182.6997,17.488 C182.7367,17.478 182.7687,17.473 182.8207,17.452 C184.1317,16.951 185.5467,16.829 186.9377,16.761 C189.5657,16.634 193.5147,16.604 195.0377,19.216 C199.1347,26.242 186.9637,24.888 182.7987,24.27 M197.3577,22 C197.7427,15.148 190.6377,14.359 185.2697,15.118 C181.3277,15.675 181.0777,16.755 181.0777,20.298 L181.0777,25.274 C181.0767,25.294 181.0777,25.312 181.0777,25.332 L181.0777,35.228 C181.0777,36.477 182.7987,35.778 182.7987,34.8 L182.7987,27.595 C184.5137,28.894 187.0247,29.938 188.2597,30.645 C190.8267,32.114 193.4277,33.532 196.0487,34.906 C196.8917,35.348 197.9047,33.655 196.9457,33.152 C194.6697,31.959 192.4107,30.731 190.1767,29.464 C189.1567,28.886 186.3737,27.706 184.5167,26.452 C189.5217,27.191 197.0347,27.712 197.3577,22" id="Fill-20" fill="#000000"></path>
                <path d="M214.0312,33.0224 C202.7752,33.0934 201.9642,16.9904 213.5422,16.6414 C217.1972,16.8354 219.4712,20.9614 220.2552,24.1054 C221.4562,28.9284 219.3492,32.9884 214.0312,33.0224 M214.0312,14.8164 C208.3202,14.9894 203.4052,18.7424 203.2262,24.7554 C203.0522,30.6674 207.8012,34.8534 213.5422,34.8464 C219.0402,34.8394 222.7082,30.9844 222.3012,25.4874 C221.9722,21.0614 219.0632,15.0854 214.0312,14.8164" id="Fill-22" fill="#000000"></path>
                <path d="M243.3446,33.0224 L234.6816,33.0224 C233.3166,33.0224 231.2156,32.6144 229.9086,33.0224 C229.8326,33.0464 229.7236,33.0434 229.6096,33.0354 C229.6156,32.9704 229.6296,32.9024 229.6536,32.8344 C230.6336,30.0264 230.1896,25.8654 230.4166,22.9054 C230.6186,20.2814 230.8216,17.6564 231.0236,15.0314 C231.1176,13.7944 229.3756,14.4954 229.3016,15.4604 C228.8226,21.6894 228.3436,27.9194 227.8646,34.1484 C227.8366,34.5064 228.1136,34.8464 228.4806,34.8464 L242.8556,34.8464 C243.8036,34.8464 244.5006,33.0224 243.3446,33.0224" id="Fill-24" fill="#000000"></path>
                <path d="M264.9081,32.5844 C262.0261,32.6644 259.1441,32.7444 256.2621,32.8234 C254.4391,32.8744 252.6171,32.9244 250.7951,32.9754 C250.4431,32.9844 250.0691,32.9784 249.7041,32.9934 C250.0951,30.0314 249.1331,26.2024 248.9081,23.2724 C248.6961,20.5254 248.4851,17.7784 248.2731,15.0314 C248.1781,13.7874 246.4771,14.4794 246.5531,15.4604 C247.0321,21.6894 247.5111,27.9194 247.9901,34.1484 C248.0161,34.4954 248.2001,34.8574 248.6061,34.8464 C253.8771,34.7004 259.1481,34.5544 264.4201,34.4084 C265.3641,34.3824 266.0581,32.5524 264.9081,32.5844" id="Fill-26" fill="#000000"></path>
                <g id="Group-30" transform="translate(102.000000, 0.774000)">
                    <mask id="mask-4" fill="white">
                        <use xlink:href="#path-3"></use>
                    </mask>
                    <g id="Clip-29"></g>
                    <path d="M168.0067,38.4095 C162.4447,41.7675 155.3177,42.5295 148.9837,43.0215 C133.1457,44.2505 117.1307,43.7355 101.2507,44.5695 C82.0307,45.5775 62.5667,46.9665 43.3577,45.0925 C35.2907,44.3055 26.9647,40.9285 18.8617,41.6195 C15.9287,41.8705 13.1197,42.6895 10.4167,43.8355 C8.2087,44.7725 5.1087,47.1645 2.6117,46.5775 C2.6897,46.6175 14.2867,31.2535 14.9757,30.1825 C19.5207,23.1105 22.2797,13.8215 30.2507,9.7715 C37.4727,6.1025 47.4377,5.8305 55.3227,4.9515 C78.7487,2.3375 102.6097,1.3415 126.1467,2.8265 C136.8047,3.4995 147.7157,4.5785 157.9517,7.7815 C164.8657,9.9445 172.0827,13.1475 173.8067,20.8055 C175.3507,27.6665 174.4437,34.5235 168.0067,38.4095 M134.3627,1.6125 C107.9407,-0.9235 80.8547,0.2475 54.5177,3.2735 C44.6977,4.4015 31.6217,4.7245 24.3277,12.2675 C21.4317,15.2625 19.4767,19.0315 17.5227,22.6655 C14.7417,27.8385 11.6297,32.6735 7.8857,37.2055 C6.8237,38.4905 -1.4143,45.9025 1.3927,48.1235 C1.4627,48.2175 1.5597,48.2955 1.7157,48.3315 C1.8357,48.3945 1.9597,48.4045 2.0807,48.3895 C6.1047,49.0415 10.8077,45.1355 14.4897,44.1465 C23.1577,41.8195 32.1777,45.7165 40.8467,46.7015 C60.1787,48.8995 79.8637,47.4915 99.2287,46.4735 C108.2767,45.9985 117.3307,45.4775 126.3927,45.3815 C135.0197,45.2895 143.6707,45.4665 152.2587,44.4905 C162.2067,43.3595 174.8047,40.1785 176.1387,28.3785 C178.6967,5.7305 150.6717,3.1775 134.3627,1.6125" id="Fill-28" fill="#000000" mask="url(#mask-4)"></path>
                </g>
                <path d="M61.2626,44.4506 C59.7856,44.7246 58.5076,46.0376 58.5776,47.6566 C58.6486,49.2726 59.9926,50.6426 61.4886,50.6476 C61.7966,50.6496 62.0946,50.5916 62.3726,50.4896 C61.7816,50.4376 61.0916,49.6206 60.9956,48.9866 C60.8056,47.7146 61.6896,47.3666 62.4506,47.5306 C63.1406,47.6786 63.7066,48.2706 63.7786,49.0026 C63.7896,49.1256 63.7806,49.2456 63.7606,49.3626 C64.0626,48.8956 64.5016,48.0876 64.5146,47.4806 C64.5486,45.8606 63.1036,44.1086 61.2626,44.4506" id="Fill-31" fill="#000000"></path>
                <path d="M78.3993,46.3637 C77.7083,45.1067 76.2183,44.3527 74.9003,44.9187 C73.5833,45.4837 72.8713,47.1307 73.3373,48.4897 C73.4323,48.7707 73.5743,49.0227 73.7463,49.2447 C73.6033,48.6907 74.0623,47.8107 74.5583,47.5287 C75.5523,46.9607 76.1183,47.6547 76.2213,48.3977 C76.3163,49.0697 76.0033,49.7687 75.4203,50.0597 C75.3213,50.1087 75.2183,50.1367 75.1153,50.1557 C75.5973,50.2847 76.4043,50.4327 76.9123,50.2567 C78.2633,49.7847 79.2603,47.9287 78.3993,46.3637" id="Fill-33" fill="#000000"></path>
            </g>
        </g>
    </g>
</svg>