<?xml version="1.0" encoding="UTF-8"?>
<svg width="258px" height="98px" viewBox="0 0 258 98" version="1.1" xmlns="http://www.w3.org/2000/svg" xmlns:xlink="http://www.w3.org/1999/xlink">
    <!-- Generator: Sketch 49 (51002) - http://www.bohemiancoding.com/sketch -->
    <title>Page 1</title>
    <desc>Created with Sketch.</desc>
    <defs>
        <polygon id="path-1" points="0.150354411 0.41196129 175.64 0.41196129 175.64 48.6487574 0.150354411 48.6487574"></polygon>
        <polygon id="path-3" points="0.839265667 0.044 10.4764887 0.044 10.4764887 13.0656215 0.839265667 13.0656215"></polygon>
        <polygon id="path-5" points="0 0.688751511 69.8604104 0.688751511 69.8604104 79.9997175 0 79.9997175"></polygon>
    </defs>
    <g id="Page-1" stroke="none" stroke-width="1" fill="none" fill-rule="evenodd">
        <g id="POST--VIDEO-Copy" transform="translate(-590.000000, -746.000000)">
            <g id="Page-1" transform="translate(590.000000, 745.000000)">
                <path d="M131.4825,28.9645 C127.9065,27.0835 114.2465,30.2895 116.4735,23.2275 C117.9995,18.3875 132.6445,18.9805 131.3335,24.8065 C131.0465,26.0805 132.7545,25.8635 132.9845,24.8415 C134.9295,16.1975 114.9015,15.5255 114.5935,24.9305 C114.3875,31.2225 123.1175,29.5915 127.3025,29.9205 C129.6565,30.1055 133.5425,31.4695 132.6855,34.7435 C132.2365,36.4555 129.5295,36.9395 128.0985,37.2085 C125.0385,37.7845 119.8355,38.0545 117.6695,35.2915 C117.0025,34.4415 115.5535,35.7855 116.1455,36.5405 C119.1695,40.3975 126.5515,39.8745 130.6235,38.2695 C134.8235,36.6145 136.0295,31.3565 131.4825,28.9645" id="Fill-1" fill="#000000"></path>
                <path d="M148.7486,21.2047 C150.2336,21.6707 151.6486,22.6387 152.7156,23.7717 C153.3906,24.4887 154.6656,22.9527 153.9716,22.2157 C152.0456,20.1697 149.0636,18.6977 146.2216,19.1577 C142.1286,19.8197 138.9606,23.9967 138.1546,27.8767 C137.4126,31.4437 138.5306,35.1557 141.7016,37.1337 C145.4106,39.4467 150.4706,39.6817 153.7446,36.5177 C154.5516,35.7387 153.8876,34.2737 152.9416,35.1877 C150.0266,38.0047 145.2686,37.4147 142.2076,35.0747 C139.8026,33.2357 139.2166,30.0527 139.9676,27.2337 C140.9736,23.4577 144.6546,19.9197 148.7486,21.2047" id="Fill-3" fill="#000000"></path>
                <path d="M162.1363,27.6383 L162.1363,24.1643 C162.1363,23.2893 161.8693,21.8403 162.0373,20.8563 C162.0743,20.8463 162.1063,20.8413 162.1583,20.8203 C163.4693,20.3193 164.8843,20.1973 166.2753,20.1293 C168.9033,20.0023 172.8523,19.9723 174.3753,22.5843 C178.4723,29.6103 166.3013,28.2563 162.1363,27.6383 M176.6953,25.3683 C177.0803,18.5163 169.9753,17.7273 164.6073,18.4863 C160.6653,19.0433 160.4153,20.1233 160.4153,23.6663 L160.4153,28.6423 C160.4143,28.6623 160.4153,28.6803 160.4153,28.7003 L160.4153,38.5963 C160.4153,39.8453 162.1363,39.1463 162.1363,38.1683 L162.1363,30.9633 C163.8513,32.2623 166.3623,33.3063 167.5973,34.0133 C170.1643,35.4823 172.7653,36.9003 175.3863,38.2743 C176.2293,38.7163 177.2423,37.0233 176.2833,36.5203 C174.0073,35.3273 171.7483,34.0993 169.5143,32.8323 C168.4943,32.2543 165.7113,31.0743 163.8543,29.8203 C168.8593,30.5593 176.3723,31.0803 176.6953,25.3683" id="Fill-5" fill="#000000"></path>
                <path d="M193.3687,36.3907 C182.1127,36.4617 181.3017,20.3587 192.8797,20.0097 C196.5347,20.2037 198.8087,24.3297 199.5927,27.4737 C200.7937,32.2967 198.6867,36.3567 193.3687,36.3907 M193.3687,18.1847 C187.6577,18.3577 182.7427,22.1107 182.5637,28.1237 C182.3897,34.0357 187.1387,38.2217 192.8797,38.2147 C198.3777,38.2077 202.0457,34.3527 201.6387,28.8557 C201.3097,24.4297 198.4007,18.4537 193.3687,18.1847" id="Fill-7" fill="#000000"></path>
                <path d="M222.6822,36.3907 L214.0192,36.3907 C212.6542,36.3907 210.5532,35.9827 209.2462,36.3907 C209.1702,36.4147 209.0612,36.4117 208.9472,36.4037 C208.9532,36.3387 208.9672,36.2707 208.9912,36.2027 C209.9712,33.3947 209.5272,29.2337 209.7542,26.2737 C209.9562,23.6497 210.1592,21.0247 210.3612,18.3997 C210.4552,17.1627 208.7132,17.8637 208.6392,18.8287 C208.1602,25.0577 207.6812,31.2877 207.2022,37.5167 C207.1742,37.8747 207.4512,38.2147 207.8182,38.2147 L222.1932,38.2147 C223.1412,38.2147 223.8382,36.3907 222.6822,36.3907" id="Fill-9" fill="#000000"></path>
                <path d="M244.2457,35.9527 C241.3637,36.0327 238.4817,36.1127 235.5997,36.1917 C233.7767,36.2427 231.9547,36.2927 230.1327,36.3437 C229.7807,36.3527 229.4067,36.3467 229.0417,36.3617 C229.4327,33.3997 228.4707,29.5707 228.2457,26.6407 C228.0337,23.8937 227.8227,21.1467 227.6107,18.3997 C227.5157,17.1557 225.8147,17.8477 225.8907,18.8287 C226.3697,25.0577 226.8487,31.2877 227.3277,37.5167 C227.3537,37.8637 227.5377,38.2257 227.9437,38.2147 C233.2147,38.0687 238.4857,37.9227 243.7577,37.7767 C244.7017,37.7507 245.3957,35.9207 244.2457,35.9527" id="Fill-11" fill="#000000"></path>
                <g id="Group-15" transform="translate(82.000000, 3.956100)">
                    <mask id="mask-2" fill="white">
                        <use xlink:href="#path-1"></use>
                    </mask>
                    <g id="Clip-14"></g>
                    <path d="M167.3443,38.5958 C161.7823,41.9538 154.6553,42.7158 148.3213,43.2078 C132.4833,44.4368 116.4683,43.9218 100.5883,44.7558 C81.3683,45.7638 61.9043,47.1528 42.6943,45.2788 C34.6283,44.4918 26.3023,41.1148 18.2003,41.8058 C15.2663,42.0568 12.4573,42.8758 9.7543,44.0218 C7.5463,44.9588 4.4463,47.3508 1.9503,46.7638 C2.0273,46.8038 13.6243,31.4398 14.3133,30.3688 C18.8583,23.2968 21.6173,14.0078 29.5883,9.9578 C36.8093,6.2888 46.7753,6.0168 54.6613,5.1378 C78.0863,2.5238 101.9473,1.5278 125.4843,3.0128 C136.1423,3.6858 147.0533,4.7648 157.2893,7.9678 C164.2033,10.1308 171.4203,13.3338 173.1443,20.9918 C174.6883,27.8528 173.7813,34.7098 167.3443,38.5958 M133.7003,1.7988 C107.2783,-0.7372 80.1923,0.4338 53.8553,3.4598 C44.0353,4.5878 30.9593,4.9108 23.6653,12.4538 C20.7693,15.4488 18.8143,19.2178 16.8603,22.8518 C14.0793,28.0248 10.9673,32.8598 7.2233,37.3918 C6.1613,38.6768 -2.0767,46.0888 0.7303,48.3098 C0.8003,48.4038 0.8973,48.4818 1.0533,48.5178 C1.1743,48.5808 1.2973,48.5908 1.4193,48.5758 C5.4423,49.2278 10.1453,45.3218 13.8273,44.3328 C22.4963,42.0058 31.5153,45.9028 40.1843,46.8878 C59.5163,49.0858 79.2013,47.6778 98.5663,46.6598 C107.6143,46.1848 116.6683,45.6638 125.7303,45.5678 C134.3573,45.4758 143.0083,45.6528 151.5963,44.6768 C161.5443,43.5458 174.1423,40.3648 175.4763,28.5648 C178.0343,5.9168 150.0093,3.3638 133.7003,1.7988" id="Fill-13" fill="#000000" mask="url(#mask-2)"></path>
                </g>
                <g id="Group-18" transform="translate(40.000000, 0.956100)">
                    <mask id="mask-4" fill="white">
                        <use xlink:href="#path-3"></use>
                    </mask>
                    <g id="Clip-17"></g>
                    <path d="M6.4366,2.253 C8.3726,3.318 8.8236,6.106 8.7906,8.629 C8.7556,8.588 8.7326,8.539 8.6956,8.499 C7.6776,7.41 6.3856,7.665 5.1386,7.049 C3.9086,6.441 2.3586,4.784 2.5446,3.269 C2.7486,1.61 5.2716,1.612 6.4366,2.253 M4.1426,8.772 C5.0176,9.202 6.2596,9.108 7.0446,9.671 C7.9296,10.305 8.1706,11.628 8.4586,12.598 C8.6036,13.085 8.9936,13.143 9.3656,12.992 C9.7176,12.896 10.0536,12.618 10.1246,12.183 C10.1246,12.177 10.1256,12.17 10.1276,12.163 C10.1426,12.106 10.1486,12.05 10.1526,11.993 C10.7416,8.215 11.0686,0.895 6.1096,0.111 C3.0516,-0.372 0.0946,1.795 1.0076,5.053 C1.4516,6.637 2.6746,8.05 4.1426,8.772" id="Fill-16" fill="#000000" mask="url(#mask-4)"></path>
                </g>
                <path d="M63.7452,6.651 C65.0852,7.72 64.3492,9.206 63.0072,9.831 C61.4002,10.579 59.6272,9.915 57.9722,10.473 C57.2502,10.716 56.5772,11.098 55.9522,11.559 C57.6812,7.989 60.5332,4.088 63.7452,6.651 M52.7492,15.626 C52.7502,15.641 52.7502,15.656 52.7512,15.67 C52.7592,15.699 52.7702,15.725 52.7832,15.751 C52.8872,16.103 53.2982,16.182 53.7032,16.031 C53.9522,15.956 54.1962,15.798 54.3612,15.523 C55.1432,14.218 56.3852,12.862 57.8162,12.289 C59.0182,11.807 60.2112,12.158 61.4542,11.994 C62.3912,11.871 63.2902,11.564 64.0792,11.039 C66.4712,9.451 67.1622,5.941 64.1482,4.606 C58.1492,1.951 54.2112,10.819 52.8142,15.211 C52.7512,15.368 52.7272,15.508 52.7492,15.626" id="Fill-19" fill="#000000"></path>
                <g id="Group-23" transform="translate(0.000000, 18.956100)">
                    <mask id="mask-6" fill="white">
                        <use xlink:href="#path-5"></use>
                    </mask>
                    <g id="Clip-22"></g>
                    <path d="M67.1641,23.0484 C67.1661,24.5124 68.1511,25.9114 68.1201,27.3904 C68.0281,31.7444 63.1111,32.6144 59.9421,32.6154 C56.6401,32.6164 53.2661,31.7454 50.4581,30.0034 C49.0811,29.1494 47.9721,27.9424 46.9561,26.6074 C46.9141,26.5004 46.8561,26.4234 46.7781,26.3774 C46.6511,26.2074 46.5281,26.0324 46.4041,25.8594 C46.3781,25.7124 46.3241,25.5724 46.1981,25.4614 C46.1381,25.4084 46.0801,25.3694 46.0201,25.3194 C43.9851,22.3904 42.1441,19.1784 38.9671,17.6624 C36.0931,16.2914 31.7391,17.6834 28.7281,18.9524 C28.9391,17.8884 29.3711,16.7214 30.2071,16.2084 C31.0801,15.6734 30.9341,13.9194 29.8231,14.6014 C26.2421,16.8004 25.7071,23.3134 28.9621,25.9584 C29.7441,26.5924 31.0011,25.0384 30.2181,24.4014 C29.0901,23.4854 28.6061,22.1874 28.5631,20.7964 C31.2701,19.6164 35.6241,18.1364 38.3121,19.5834 C39.7591,20.3614 41.0791,21.7784 42.2431,23.2764 C33.6871,21.2174 26.3801,36.1984 24.5291,42.3544 C24.1321,43.6734 23.7661,45.0344 23.4451,46.4224 C23.4061,46.4824 23.3601,46.5314 23.3301,46.6034 C20.8631,52.4854 15.8801,56.1784 9.6021,57.3104 C8.1481,57.5724 5.3251,58.1394 3.9291,57.4154 C2.7361,57.6044 2.4541,57.1994 3.0821,56.1994 C3.1311,55.1624 3.6791,54.4504 4.7271,54.0614 C5.2431,53.3664 5.7811,52.9834 6.1231,52.1524 C6.4351,51.3974 6.3671,50.5644 6.4791,49.7724 C6.8801,46.9354 7.7091,44.3504 9.2331,41.9064 C11.5441,38.1974 17.7391,32.2994 22.7211,33.5754 C23.6541,33.8154 24.6451,32.0854 23.6191,31.8214 C18.9971,30.6384 13.4961,34.7114 10.5271,37.7794 C9.8381,38.4914 9.2041,39.2574 8.6181,40.0624 C9.2171,29.0014 16.7531,16.9644 26.7071,9.5064 C27.1631,9.6464 27.7681,9.1704 27.9331,8.6214 C38.3871,1.3284 51.2061,-0.8626 61.4401,8.1444 C63.9451,10.3484 66.5481,13.4544 67.5251,16.7624 C68.2271,19.1384 67.1621,20.8504 67.1641,23.0484 M47.8371,30.2904 C50.3181,32.4874 53.2671,33.7914 57.0501,34.2764 C58.6741,34.4844 60.6541,34.5234 62.5711,34.2234 C61.0371,38.4394 56.5801,38.9714 52.6011,36.7394 C50.3261,35.4634 48.7451,32.9264 47.8371,30.2904 M44.3371,37.4634 C43.8091,36.5354 42.3341,37.8704 42.8131,38.7124 C43.2991,39.5664 43.8921,40.3174 44.5551,40.9824 C43.4011,41.7044 40.5181,41.8814 39.6591,42.0824 C37.8081,42.5164 35.9211,43.0204 34.2551,43.9694 C31.2921,45.6564 29.8311,48.4284 29.1701,51.6974 C28.1901,56.5404 27.9661,69.3624 34.0471,71.4084 C38.2151,72.8104 41.8971,67.8924 44.3731,65.4334 C47.2791,62.5474 45.9851,65.3944 45.3011,67.8404 C44.2901,71.4584 42.6241,75.6924 38.9771,77.4244 C37.5611,78.0964 36.0871,78.2664 34.6131,78.1154 C34.5991,78.1084 34.5931,78.0944 34.5781,78.0884 C23.6011,73.2364 22.9721,56.9194 25.0001,47.0284 C26.3081,40.6494 28.6791,32.9084 33.6121,28.3754 C36.6361,25.5964 41.4791,24.0144 44.8951,26.9814 C45.0431,27.1894 45.1961,27.3844 45.3471,27.5834 C45.3481,27.6054 45.3381,27.6274 45.3411,27.6494 C46.0391,33.3264 49.4701,38.9184 55.4771,39.7174 C59.5851,40.2644 62.5281,38.5354 63.9401,35.1034 C64.3341,44.7244 48.7011,45.1264 44.3371,37.4634 M41.0501,50.7404 C41.7141,49.9114 42.7461,48.4534 43.5451,47.8014 C43.5941,47.7614 43.6381,47.7184 43.6771,47.6734 C43.6631,47.8424 43.6511,48.0304 43.6441,48.2624 C43.5281,52.6824 47.0471,55.7684 46.9901,60.1684 C46.9891,60.2984 47.0101,60.4054 47.0471,60.4954 C47.0591,60.6164 47.0701,60.7364 47.0821,60.8584 C47.1111,61.1594 47.1881,61.3984 47.4941,61.5204 C48.8341,62.0554 49.8581,60.9684 51.0771,60.4814 C55.3161,58.7864 57.1521,61.9664 60.9921,61.6734 C63.4201,61.4884 65.9791,59.2614 63.5811,62.5524 C60.2581,67.1124 50.6091,69.8774 47.8761,62.9954 C47.8631,62.9624 47.8401,62.9474 47.8241,62.9184 C47.4211,61.9474 46.9231,61.7134 46.3501,61.8814 C46.2141,61.8654 46.0621,61.8764 45.8751,61.9534 C39.0161,64.7814 38.0401,54.5034 41.0501,50.7404 M12.1071,58.4334 C16.3691,57.1324 20.0111,54.6244 22.5781,51.0644 C21.9481,55.5064 21.9211,60.0564 22.9841,64.2744 C23.9961,68.2914 25.7741,72.6894 28.5991,75.9594 C26.9911,75.0364 25.4951,73.9544 24.2131,72.9654 C19.1441,69.0534 15.1021,64.0614 12.1071,58.4334 M10.3061,10.6424 C8.8501,9.9414 7.7281,9.8754 6.1991,9.8154 C4.3501,9.7424 2.6431,10.5354 4.2881,8.6464 C8.3271,4.0054 21.5101,3.0484 25.8061,8.4274 C22.2631,11.0424 19.0861,14.1214 16.4241,17.3484 C15.0631,14.6164 13.1071,11.9924 10.3061,10.6424 M46.6431,0.6894 C39.8291,0.7374 33.1961,3.3654 27.4041,7.2894 C25.4781,4.8914 21.5051,3.9114 18.7931,3.4674 C13.5801,2.6144 8.3021,3.5014 4.0921,6.8194 C3.0961,7.6054 0.9391,9.2194 1.6271,10.8244 C2.1361,12.0134 3.9661,11.6614 4.9181,11.6934 C10.0491,11.8624 12.9961,14.5774 15.1031,19.0144 C10.1131,25.6574 6.5351,34.4864 6.8791,42.8854 C6.1881,44.2274 5.6321,45.6374 5.2521,47.0924 C4.9311,48.3214 5.0621,49.7344 4.7081,50.9194 C4.0411,53.1474 2.1791,53.6994 0.8341,55.3754 C-2.7559,59.8504 6.2551,59.5634 8.7011,59.2044 C9.2001,59.1314 9.6921,59.0404 10.1781,58.9374 C14.5471,67.4924 23.4591,78.5224 33.7141,79.9094 C38.1401,80.5084 41.8101,78.0644 44.1791,74.4624 C45.2781,72.7914 47.1621,69.2814 47.8381,66.3434 C50.7781,69.2734 56.0231,69.6954 59.6501,67.9044 C62.1191,66.6854 67.6381,62.4044 66.6561,59.1554 C66.5711,58.8754 66.3641,58.6834 66.0601,58.6754 C64.9701,58.6504 64.0691,59.2094 63.0121,59.4584 C59.3441,60.3214 59.0901,58.8584 56.0801,58.0874 C55.2951,57.8864 48.6161,58.4734 48.7321,59.6874 C48.7281,59.6424 48.7101,59.6124 48.7021,59.5724 C48.6781,56.2014 46.6891,53.7544 45.8011,50.6134 C45.4491,49.3654 46.1751,45.4194 44.2481,45.0184 C43.8341,44.9324 43.4811,45.1064 43.2101,45.4204 C40.3011,48.8044 36.6301,52.9344 37.3601,57.7684 C37.8951,61.3094 40.4061,63.9834 43.5931,64.0684 C41.0581,66.7454 37.4081,71.6254 33.9601,69.1514 C31.9111,67.6804 31.2811,63.7014 30.8921,61.4394 C29.5511,53.6484 30.5001,46.0814 39.1301,43.9614 C41.0961,43.4784 44.0261,43.4324 45.6861,41.9784 C53.0941,47.6434 67.0561,44.0854 65.5511,33.4104 C67.1711,32.7274 68.5331,31.6524 69.2821,30.0304 C69.8431,28.8164 69.9211,27.1794 69.7561,25.8894 C69.5341,24.1474 68.8771,23.2094 69.1651,21.3094 C69.2771,20.5744 69.7621,19.9654 69.8341,19.1784 C70.2081,15.0504 66.5151,10.3324 63.8291,7.6484 C59.2231,3.0454 53.1331,0.6434 46.6431,0.6894" id="Fill-21" fill="#000000" mask="url(#mask-6)"></path>
                </g>
                <path d="M52.209,37.4151 C51.72,36.3801 50.834,35.4951 49.906,34.7691 C48.797,33.8981 47.639,33.4581 46.439,33.2571 C46.405,33.0621 46.287,32.8961 46.068,32.7931 C46.023,30.9361 48.416,29.0151 49.748,28.1771 C51.901,26.8231 54.675,26.3061 56.787,28.0301 C60.377,30.9601 55.777,36.5051 52.209,37.4151 M57.584,26.1331 C54.783,24.2451 51.287,25.2161 48.705,27.0011 C47.139,28.0821 45.239,29.8641 44.588,31.8701 C43.616,31.0881 42.755,30.0681 41.947,29.2411 C41.257,28.5341 39.984,30.0731 40.692,30.7981 C41.453,31.5771 42.236,32.4571 43.104,33.2051 C42.458,33.2681 41.802,33.3541 41.135,33.4541 C40.164,33.5991 39.845,35.4111 41.081,35.2271 C43.5,34.8661 45.908,34.4861 48.077,35.9001 C49.201,36.6341 51.199,38.1811 50.867,39.7571 C50.598,41.0351 52.302,40.8201 52.518,39.7921 C52.569,39.5531 52.587,39.3211 52.591,39.0921 C57.534,37.6091 62.977,29.7661 57.584,26.1331" id="Fill-24" fill="#000000"></path>
                <path d="M54.1158,29.2906 C52.8408,28.9616 51.3758,29.5176 50.8898,30.8086 C50.4048,32.0976 51.0228,33.6626 52.2198,34.2166 C52.4668,34.3316 52.7238,34.3956 52.9818,34.4176 C52.5248,34.1606 52.2458,33.2686 52.3828,32.7376 C52.6558,31.6726 53.4798,31.7266 54.0358,32.1346 C54.5388,32.5036 54.7938,33.1756 54.6058,33.7726 C54.5738,33.8736 54.5258,33.9636 54.4708,34.0486 C54.8688,33.7946 55.4918,33.3246 55.7058,32.8546 C56.2768,31.6016 55.7048,29.7006 54.1158,29.2906" id="Fill-26" fill="#000000"></path>
            </g>
        </g>
    </g>
</svg>