<?xml version="1.0" encoding="UTF-8"?>
<svg width="152px" height="80px" viewBox="0 0 152 80" version="1.1" xmlns="http://www.w3.org/2000/svg" xmlns:xlink="http://www.w3.org/1999/xlink">
    <!-- Generator: Sketch 49 (51002) - http://www.bohemiancoding.com/sketch -->
    <title>Page 1</title>
    <desc>Created with Sketch.</desc>
    <defs>
        <polygon id="path-1" points="0.955360526 0.54319428 67.568 0.54319428 67.568 43.2141122 0.955360526 43.2141122"></polygon>
    </defs>
    <g id="Page-1" stroke="none" stroke-width="1" fill="none" fill-rule="evenodd">
        <g id="POST--VIDEO-Copy" transform="translate(-530.000000, -364.000000)">
            <g id="Page-1" transform="translate(530.000000, 363.000000)">
                <path d="M92.6709,66.1683 C87.8799,73.4533 77.5789,73.9903 69.8809,71.2853 C71.1769,69.5503 72.2499,67.5503 73.0189,65.2203 C73.0189,65.2203 73.0189,65.2193 73.0189,65.2193 C74.8069,63.9463 76.3059,62.3353 77.4589,60.4243 C77.5409,60.4063 77.6199,60.3973 77.7169,60.3503 C81.1619,58.6853 83.7379,61.2903 86.7659,62.2453 C88.4009,62.7613 90.0229,62.7143 91.7129,62.5033 C93.1189,62.3273 94.0739,61.6623 94.3359,62.3303 C94.6869,63.2243 93.0699,65.5623 92.6709,66.1683 M72.2319,54.3883 C71.2159,53.4843 69.5559,53.0953 68.3729,53.1743 C66.7449,53.2823 65.3099,54.2143 64.3519,55.5023 C61.7339,54.9993 58.6379,55.0003 56.6979,56.9163 C55.4859,55.6753 54.5379,54.1033 53.8949,52.4563 C54.7179,52.8473 55.4909,53.1573 56.1809,53.2973 C61.2739,54.3243 67.9839,53.4003 73.0699,51.4183 C72.8879,52.4623 72.6179,53.4633 72.2319,54.3883 M64.1379,57.3993 C64.6379,57.5153 65.0879,57.2073 65.3219,56.7733 C66.2539,55.0543 70.2959,54.1743 71.2499,56.1843 C70.3089,57.5173 68.9859,58.5603 67.1259,59.1283 C64.0289,60.0753 60.5249,59.9153 57.8629,57.9513 C59.4469,56.6263 62.2839,56.9723 64.1379,57.3993 M24.2929,73.5293 C28.2329,73.2903 31.4859,71.9593 34.0759,69.7683 C34.1699,69.8293 34.2869,69.8703 34.4509,69.8653 C38.4119,69.7673 42.1819,68.1203 43.6579,64.2773 C44.2539,62.7253 44.6149,61.1013 44.8209,59.4533 C45.0399,57.7043 44.7579,55.6773 46.0299,54.3433 C47.4629,52.8413 50.0639,52.7383 52.0349,52.9173 C52.0409,52.9183 52.0459,52.9143 52.0519,52.9143 C53.4859,57.0263 56.6489,60.7163 61.0899,61.3953 C66.1169,62.1633 70.0109,60.2603 72.4019,56.8803 C72.7749,56.6703 73.0809,56.2533 73.0669,55.8343 C73.9399,54.3023 74.5399,52.5333 74.8429,50.6083 C75.4859,50.0093 75.2629,48.6923 74.2019,49.1863 C70.0999,51.0913 64.5239,51.8893 60.0869,51.8143 C55.8109,51.7423 53.7179,50.0163 50.2139,48.1913 C46.8289,46.4313 42.1189,47.5343 40.2159,50.9853 C39.5829,52.1343 41.1369,52.4833 41.6869,51.4873 C43.8369,47.5893 47.6169,49.2183 51.1309,51.0393 C48.2499,51.0643 45.0359,51.9783 43.8239,54.7383 C42.7029,57.2933 43.2789,60.4263 42.3939,63.1053 C41.3489,66.2703 38.9299,67.6713 35.8879,67.9723 C37.4489,66.1683 38.6989,63.9853 39.6299,61.4803 C40.0829,60.2603 38.3339,60.4883 37.9789,61.4443 C35.0359,69.3603 28.5159,72.4823 20.3779,71.5993 C16.9649,71.2293 13.7749,70.2803 10.9059,68.3553 C9.4149,67.3533 6.2779,65.0663 5.8709,63.2573 C5.7839,62.8713 5.6839,62.7183 5.6059,62.6603 C5.6329,62.6483 5.6569,62.6403 5.6949,62.6143 C5.7679,62.5663 8.0859,62.9823 8.2599,62.9843 C8.4599,62.9873 8.6599,62.9623 8.8609,62.9523 C9.0589,63.0633 9.2789,63.0393 9.4879,62.9183 C10.8789,62.7683 12.2589,62.3543 13.5149,61.7763 C19.7059,58.9323 24.3459,56.0313 31.5279,58.8283 C32.4249,59.1783 33.4309,57.4673 32.4249,57.0743 C28.0009,55.3523 23.4429,55.3703 18.9749,57.0283 C18.0569,57.3693 17.1999,57.8143 16.3629,58.2843 C10.1509,54.1493 6.3339,44.6683 6.7359,37.3173 C6.7389,37.2593 6.7199,37.2253 6.7159,37.1743 C7.0669,36.5863 7.4379,36.0123 7.8559,35.4763 C8.2579,34.9593 8.7739,34.5103 9.1629,33.9963 C9.3519,33.7773 9.5749,33.5993 9.8119,33.4373 C9.4059,35.4643 7.2459,37.0493 7.6129,39.7043 C8.2459,44.2763 13.4169,47.3723 17.5229,48.1583 C23.4039,49.2853 29.3989,48.0873 34.4609,45.1133 C34.2119,46.6823 34.1589,48.3033 34.3539,49.9633 C34.4859,51.0883 36.1429,50.0303 36.0329,49.0993 C35.8109,47.2073 35.9689,45.3663 36.4019,43.6033 C36.4119,43.5713 36.4199,43.5423 36.4259,43.5113 C38.0569,37.0303 43.6209,31.6523 49.6849,29.1153 C55.6479,26.6213 62.6879,27.6153 68.0239,31.0283 C67.6219,31.0243 67.2189,31.0433 66.8219,31.0843 C60.8799,31.7063 61.0359,37.8193 62.7509,42.1873 C62.5899,42.2443 62.4269,42.3023 62.2729,42.3603 C61.3839,42.6963 61.0689,44.5683 62.2179,44.1333 C65.5699,42.8643 71.0209,41.3973 73.3989,45.0623 C73.9839,45.9643 75.4489,44.6243 74.9229,43.8143 C74.2509,42.7773 73.3809,42.0753 72.3949,41.6243 C73.1769,40.2283 73.7719,38.6253 73.9529,37.0323 C75.2549,39.2063 76.0749,41.6963 76.2289,44.4343 C76.2449,44.7243 76.3409,44.9913 76.6399,45.0973 C80.7149,46.5233 77.6899,57.1193 76.5259,59.4153 C74.2399,63.9273 68.8249,66.3293 63.9329,66.6543 C62.9959,66.7173 62.3039,68.5543 63.4439,68.4793 C66.1779,68.2973 68.6719,67.6283 70.8519,66.5333 C70.2069,68.1063 69.3989,69.4993 68.4539,70.7303 C68.4159,70.7153 68.3759,70.7013 68.3379,70.6863 C67.5639,70.3543 66.6939,71.6243 67.1619,72.2303 C57.4169,82.2913 36.8859,79.0283 24.2929,73.5293 M4.8589,41.3363 C4.9189,41.1473 4.9959,40.9603 5.0609,40.7713 C5.6119,47.6373 9.0959,55.3993 14.4569,59.3753 C13.0039,60.1903 11.5159,60.9003 9.7839,61.0993 C5.0139,55.8723 2.7199,48.1653 4.8589,41.3363 M3.8789,29.1933 C1.9099,26.9263 1.5119,23.2213 1.8709,20.3913 C2.1369,18.2963 3.1609,14.0433 5.2329,12.9323 C7.1809,11.8873 5.9899,12.6123 6.5179,13.3933 C7.2539,14.4803 7.8599,15.7383 8.7159,16.9123 C11.2189,20.3443 10.1849,23.8773 9.8919,27.7503 C9.8149,28.7783 9.4699,30.1793 10.2959,30.9873 C10.3049,30.9963 10.3209,31.0013 10.3319,31.0103 C10.1039,31.0073 9.8299,31.0203 9.4439,31.0323 C6.7189,31.1203 6.9599,32.7393 3.8789,29.1933 M19.2939,28.5653 C20.4939,28.9053 21.3649,29.4493 22.3279,29.8373 C21.5019,30.2923 20.7629,30.8373 20.1969,31.5073 C18.0319,34.0713 21.3519,33.8283 23.1119,33.8053 C24.2589,33.7903 25.3679,34.0763 26.4049,34.5663 C24.0589,36.2843 21.0669,37.1403 18.1939,36.2383 C15.3719,35.3533 14.3219,33.2033 12.0419,31.7083 C11.5019,31.3543 11.2009,31.1783 10.9109,31.0893 C13.8859,30.0123 15.3539,27.4493 19.2939,28.5653 M10.9459,33.9213 C10.9829,33.7993 11.0239,33.6853 11.0659,33.5733 C11.9779,34.2683 12.7219,35.2673 13.7089,36.0223 C15.2379,37.1913 16.9779,38.1003 18.9069,38.3683 C22.1139,38.8143 25.3989,37.4813 27.8349,35.3973 C30.6469,37.3973 32.6169,40.9703 32.6839,44.2843 C26.5139,47.3663 17.8839,48.2163 12.4889,43.7323 C11.4679,42.8853 10.4029,41.8253 9.8759,40.5783 C8.5599,37.4653 10.1899,36.4873 10.9459,33.9213 M41.4369,32.7143 C38.4149,35.5533 36.0529,39.0613 34.9399,42.9763 C34.7599,43.0953 34.5749,43.2103 34.3879,43.3253 C34.1459,39.6643 31.8959,35.6693 28.7369,33.5253 C28.6359,33.3303 28.4639,33.2133 28.2539,33.2143 C27.0839,32.5123 25.8079,32.0553 24.4699,31.9683 C22.4289,31.8353 20.1119,33.0303 23.0589,31.4563 C24.5079,30.6823 25.9879,30.1873 27.5929,29.8963 C32.7389,28.9613 36.9989,30.0603 41.4369,32.7143 M70.9299,41.1513 C68.9169,40.7223 66.6259,41.0413 64.5599,41.6113 C63.1479,38.4673 62.0449,33.2043 66.8119,32.8693 C69.5199,32.6793 72.4079,33.6053 72.2919,36.7373 C72.2379,38.1883 71.6499,39.9023 70.9299,41.1513 M95.4369,60.2203 C94.6649,60.1123 93.9399,60.3953 93.1759,60.4963 C90.0239,60.9173 88.3629,60.6373 85.4009,59.4513 C82.6909,58.3663 80.9789,57.5153 78.5699,58.2543 C79.1799,56.8123 79.6239,55.2433 79.8729,53.5563 C80.3599,50.2633 80.5119,47.1283 78.8719,44.2233 C78.6749,43.8753 77.8379,43.6893 77.7119,43.4033 C77.5779,43.1013 77.6809,41.2753 77.6069,40.8403 C77.1679,38.2633 75.6889,35.7373 74.0599,33.7433 C66.9379,25.0223 54.5219,23.5963 45.3069,29.6553 C44.5159,30.1763 43.7499,30.7403 43.0089,31.3393 C38.8829,28.8033 34.6709,27.2543 29.7749,27.8083 C28.5079,27.9513 27.0089,28.1923 25.5349,28.5933 C25.4389,28.5183 25.3169,28.4643 25.1349,28.4673 C22.4589,28.5123 20.5799,26.4303 17.8579,26.4773 C16.3709,26.5023 13.3879,28.6423 12.4659,28.4683 C11.1729,28.2263 11.5639,27.8863 11.7469,26.0793 C11.8849,24.7213 12.1099,23.3573 12.1409,21.9903 C12.1869,19.9763 11.9489,18.2113 10.8789,16.4663 C10.4559,15.7763 9.7329,15.2343 9.3329,14.5533 C7.8889,12.0953 9.2969,12.4683 8.6989,11.3123 C8.3329,10.6063 8.5409,10.0923 7.6729,9.8043 C5.3349,9.0293 2.6359,13.8433 1.9299,15.1453 C-0.3791,19.4023 -0.7301,24.5453 1.4999,28.9383 C2.3749,30.6603 3.6119,32.5483 5.5939,33.0963 C6.2179,33.2683 6.7869,33.1893 7.3359,33.0683 C4.5259,36.1473 2.7529,42.4193 2.4459,44.8073 C1.7219,50.4453 3.6169,56.2953 7.0269,60.8483 C5.7529,60.5513 4.3609,60.2993 3.6669,61.4313 C2.9479,62.6013 4.1579,64.2353 4.7659,65.1383 C8.1119,70.1133 13.7369,72.7153 19.5449,73.3913 C19.5599,73.4003 19.5659,73.4163 19.5819,73.4253 C32.4559,80.5063 57.2449,85.0703 68.5539,72.8833 C75.0969,75.3433 83.1319,75.4243 89.1179,71.6633 C91.7279,70.0233 97.5379,64.4973 96.0319,60.6993 C95.9119,60.3973 95.7629,60.2653 95.4369,60.2203" id="Fill-1" fill="#FFFFFF"></path>
                <path d="M49.607,42.0491 C49.189,40.3371 48.776,38.5831 48.877,36.8181 C49.057,33.6911 51.578,32.5431 54.524,32.9811 C58.738,33.6071 58.314,38.8831 56.626,41.9131 C54.425,41.4511 51.848,41.4281 49.607,42.0491 M55.013,31.1561 C51.874,30.7731 48.519,31.9701 47.502,35.1891 C46.734,37.6211 47.289,40.2591 47.878,42.7011 C46.868,43.1991 45.99,43.8701 45.348,44.7551 C44.622,45.7571 45.789,46.7231 46.526,45.7061 C48.348,43.1951 52.939,43.0451 56.202,43.7961 C56.366,43.9551 56.595,44.0241 56.839,43.9561 C57.288,44.0831 57.704,44.2271 58.071,44.3831 C58.956,44.7601 59.964,43.0531 58.969,42.6291 C58.7,42.5141 58.414,42.4091 58.118,42.3121 C60.196,38.2921 60.547,31.8341 55.013,31.1561" id="Fill-3" fill="#FFFFFF"></path>
                <path d="M53.5586,36.3401 C52.3356,36.3351 51.1766,37.0871 51.0826,38.2361 C50.9896,39.3841 51.9536,40.5301 53.1656,40.7351 C53.4166,40.7771 53.6626,40.7771 53.8986,40.7411 C53.4236,40.6261 52.9396,39.9581 52.9216,39.4991 C52.8846,38.5771 53.6336,38.4511 54.2366,38.6681 C54.7826,38.8651 55.1866,39.3601 55.1766,39.8841 C55.1746,39.9721 55.1556,40.0551 55.1286,40.1351 C55.4166,39.8471 55.8486,39.3371 55.9146,38.9111 C56.0926,37.7761 55.0826,36.3471 53.5586,36.3401" id="Fill-5" fill="#FFFFFF"></path>
                <path d="M67.4092,35.9544 C66.3582,36.2374 65.6412,37.4324 65.8412,38.5454 C65.8822,38.7744 65.9612,38.9874 66.0662,39.1804 C66.0192,38.7324 66.4612,38.1034 66.8652,37.9424 C67.6742,37.6194 68.0222,38.2254 68.0182,38.8154 C68.0152,39.3504 67.7032,39.8554 67.2332,40.0134 C67.1532,40.0394 67.0732,40.0494 66.9932,40.0514 C67.3412,40.2084 67.9312,40.4204 68.3312,40.3434 C69.3992,40.1384 70.3532,38.8134 69.8792,37.4944 C69.4982,36.4354 68.4622,35.6724 67.4092,35.9544" id="Fill-7" fill="#FFFFFF"></path>
                <path d="M131.9024,29.9124 C121.2864,33.8544 120.4704,13.5404 128.6544,13.0624 C133.1094,13.1784 137.4704,15.1074 137.8994,20.0284 C138.2514,24.0854 135.7774,28.4744 131.9024,29.9124 M129.1434,11.2394 C118.7024,11.8484 118.6534,34.3264 130.4704,32.0714 C135.5124,31.1094 139.2014,26.2234 139.6164,21.2354 C140.1544,14.7554 135.1034,11.3924 129.1434,11.2394" id="Fill-9" fill="#FFFFFF"></path>
                <path d="M117.9019,22.3245 L110.1959,22.3245 C109.2479,22.3245 108.5509,24.1485 109.7069,24.1485 L113.5599,24.1485 C114.4089,24.1485 115.3699,24.2755 116.2089,24.1485 C116.6079,24.0885 116.8259,24.1175 116.9399,24.1445 C117.8669,29.0095 109.4899,30.7465 106.3499,29.8035 C101.2319,28.2685 99.5639,18.5765 103.1839,14.8735 C104.9649,13.0515 115.0779,12.2725 115.2559,15.7445 C115.3189,16.9925 117.0269,16.2985 116.9769,15.3155 C116.7659,11.1805 109.0989,11.2915 106.5489,11.6765 C100.4059,12.6025 99.2959,18.8015 99.9789,24.1335 C100.8419,30.8805 106.9559,33.4675 113.0529,31.0735 C115.6709,30.0475 119.8439,26.1615 118.4969,22.8035 C118.3889,22.5345 118.2239,22.3245 117.9019,22.3245" id="Fill-11" fill="#FFFFFF"></path>
                <g id="Group-15" transform="translate(84.000000, 0.456600)">
                    <mask id="mask-2" fill="white">
                        <use xlink:href="#path-1"></use>
                    </mask>
                    <g id="Clip-14"></g>
                    <path d="M63.6065,30.5935 C59.4255,36.6595 51.0895,37.4245 44.3475,37.6195 C36.2295,37.8565 28.1365,36.9185 20.0255,36.7845 C16.5565,36.7275 13.1845,36.8205 9.9005,38.0745 C7.5005,38.9905 5.4195,40.5615 2.9845,41.3885 C2.3335,41.5075 4.3975,35.3365 4.5615,34.8965 C5.7235,31.7825 7.2175,28.7115 7.8605,25.4405 C8.8625,20.3405 7.6405,13.7955 11.3925,9.7105 C18.2435,2.2525 32.4545,1.9935 41.7445,2.4725 C51.8475,2.9925 61.1375,5.4305 64.7645,15.9435 C66.3965,20.6695 66.5415,26.3355 63.6065,30.5935 M66.1115,14.1725 C61.7415,2.8335 50.9225,0.7835 39.9375,0.5665 C30.3425,0.3765 14.1445,1.1405 8.6885,10.7945 C7.3035,13.2455 7.1815,16.1295 6.9225,18.8725 C6.4485,23.9025 5.5155,28.0205 3.7085,32.7605 C3.2455,33.9735 -1.4335,43.4345 2.5495,43.2065 C2.6535,43.2235 2.7775,43.2135 2.9305,43.1615 C5.7445,42.2055 8.1265,40.3625 10.9615,39.4505 C15.8775,37.8705 21.6025,38.6265 26.6765,38.8925 C35.5945,39.3595 44.9345,40.3625 53.7355,38.3325 C65.2165,35.6855 70.3065,25.0545 66.1115,14.1725" id="Fill-13" fill="#FFFFFF" mask="url(#mask-2)"></path>
                </g>
            </g>
        </g>
    </g>
</svg>