<?xml version="1.0" encoding="UTF-8"?>
<svg width="258px" height="95px" viewBox="0 0 258 95" version="1.1" xmlns="http://www.w3.org/2000/svg" xmlns:xlink="http://www.w3.org/1999/xlink">
    <!-- Generator: Sketch 49 (51002) - http://www.bohemiancoding.com/sketch -->
    <title>Page 1</title>
    <desc>Created with Sketch.</desc>
    <defs>
        <polygon id="path-1" points="0.150354411 0.412 175.64 0.412 175.64 48.6487574 0.150354411 48.6487574"></polygon>
        <polygon id="path-3" points="0 0.688751511 69.8604104 0.688751511 69.8604104 79.9997175 0 79.9997175"></polygon>
    </defs>
    <g id="Page-1" stroke="none" stroke-width="1" fill="none" fill-rule="evenodd">
        <g id="POST--VIDEO-Copy" transform="translate(-834.000000, -565.000000)">
            <g id="Page-1" transform="translate(834.000000, 564.000000)">
                <path d="M131.483,25.5966 C127.907,23.7156 114.246,26.9216 116.473,19.8596 C118,15.0196 132.644,15.6126 131.334,21.4386 C131.046,22.7126 132.754,22.4956 132.985,21.4736 C134.929,12.8296 114.902,12.1576 114.593,21.5626 C114.387,27.8546 123.117,26.2236 127.303,26.5526 C129.657,26.7376 133.543,28.1016 132.685,31.3756 C132.237,33.0876 129.53,33.5716 128.098,33.8406 C125.039,34.4166 119.836,34.6866 117.67,31.9236 C117.003,31.0736 115.553,32.4176 116.145,33.1726 C119.17,37.0296 126.551,36.5066 130.623,34.9016 C134.824,33.2466 136.03,27.9886 131.483,25.5966" id="Fill-1" fill="#161616"></path>
                <path d="M148.7486,17.8368 C150.2336,18.3028 151.6486,19.2708 152.7156,20.4038 C153.3906,21.1208 154.6656,19.5848 153.9716,18.8478 C152.0456,16.8018 149.0636,15.3298 146.2226,15.7898 C142.1286,16.4518 138.9616,20.6288 138.1546,24.5088 C137.4126,28.0758 138.5306,31.7878 141.7016,33.7658 C145.4106,36.0788 150.4706,36.3138 153.7446,33.1498 C154.5516,32.3708 153.8876,30.9058 152.9416,31.8198 C150.0266,34.6368 145.2686,34.0468 142.2076,31.7068 C139.8036,29.8678 139.2166,26.6848 139.9676,23.8658 C140.9736,20.0898 144.6536,16.5518 148.7486,17.8368" id="Fill-3" fill="#161616"></path>
                <path d="M162.1363,24.2704 L162.1363,20.7964 C162.1363,19.9214 161.8693,18.4724 162.0373,17.4884 C162.0743,17.4784 162.1063,17.4734 162.1583,17.4524 C163.4693,16.9514 164.8843,16.8294 166.2753,16.7614 C168.9033,16.6344 172.8523,16.6044 174.3753,19.2164 C178.4723,26.2424 166.3013,24.8884 162.1363,24.2704 M176.6953,22.0004 C177.0803,15.1484 169.9753,14.3594 164.6073,15.1184 C160.6653,15.6754 160.4153,16.7554 160.4153,20.2984 L160.4153,25.2744 C160.4143,25.2944 160.4153,25.3124 160.4153,25.3324 L160.4153,35.2284 C160.4153,36.4774 162.1363,35.7784 162.1363,34.8004 L162.1363,27.5954 C163.8513,28.8944 166.3623,29.9384 167.5973,30.6454 C170.1643,32.1144 172.7653,33.5324 175.3863,34.9064 C176.2293,35.3484 177.2423,33.6554 176.2833,33.1524 C174.0073,31.9594 171.7483,30.7314 169.5143,29.4644 C168.4943,28.8864 165.7113,27.7064 163.8543,26.4524 C168.8593,27.1914 176.3723,27.7124 176.6953,22.0004" id="Fill-5" fill="#161616"></path>
                <path d="M193.3687,33.0228 C182.1127,33.0938 181.3017,16.9908 192.8797,16.6418 C196.5347,16.8358 198.8087,20.9618 199.5927,24.1058 C200.7937,28.9288 198.6867,32.9888 193.3687,33.0228 M193.3687,14.8168 C187.6577,14.9898 182.7427,18.7428 182.5637,24.7558 C182.3897,30.6678 187.1387,34.8538 192.8797,34.8468 C198.3777,34.8398 202.0457,30.9848 201.6387,25.4878 C201.3097,21.0618 198.4007,15.0858 193.3687,14.8168" id="Fill-7" fill="#161616"></path>
                <path d="M222.6822,33.0228 L214.0192,33.0228 C212.6542,33.0228 210.5532,32.6148 209.2462,33.0228 C209.1702,33.0468 209.0612,33.0438 208.9472,33.0358 C208.9532,32.9708 208.9672,32.9028 208.9912,32.8348 C209.9712,30.0268 209.5272,25.8658 209.7542,22.9058 C209.9562,20.2818 210.1592,17.6568 210.3612,15.0318 C210.4552,13.7948 208.7132,14.4958 208.6392,15.4608 C208.1602,21.6898 207.6812,27.9198 207.2022,34.1488 C207.1742,34.5068 207.4512,34.8468 207.8182,34.8468 L222.1932,34.8468 C223.1412,34.8468 223.8382,33.0228 222.6822,33.0228" id="Fill-9" fill="#161616"></path>
                <path d="M244.2457,32.5848 C241.3637,32.6648 238.4817,32.7448 235.5997,32.8238 C233.7767,32.8748 231.9547,32.9248 230.1327,32.9758 C229.7807,32.9848 229.4067,32.9788 229.0417,32.9938 C229.4327,30.0318 228.4707,26.2028 228.2457,23.2728 C228.0337,20.5258 227.8227,17.7788 227.6107,15.0318 C227.5157,13.7878 225.8147,14.4798 225.8907,15.4608 C226.3697,21.6898 226.8487,27.9198 227.3277,34.1488 C227.3537,34.4958 227.5377,34.8578 227.9437,34.8468 C233.2147,34.7008 238.4857,34.5548 243.7577,34.4088 C244.7017,34.3828 245.3957,32.5528 244.2457,32.5848" id="Fill-11" fill="#161616"></path>
                <g id="Group-15" transform="translate(82.000000, 0.588200)">
                    <mask id="mask-2" fill="white">
                        <use xlink:href="#path-1"></use>
                    </mask>
                    <g id="Clip-14"></g>
                    <path d="M167.3443,38.5958 C161.7823,41.9538 154.6553,42.7158 148.3213,43.2078 C132.4833,44.4368 116.4683,43.9218 100.5883,44.7558 C81.3683,45.7638 61.9043,47.1528 42.6953,45.2788 C34.6283,44.4918 26.3023,41.1148 18.1993,41.8058 C15.2663,42.0568 12.4573,42.8758 9.7543,44.0218 C7.5463,44.9588 4.4463,47.3508 1.9503,46.7638 C2.0273,46.8038 13.6243,31.4398 14.3133,30.3688 C18.8583,23.2968 21.6173,14.0078 29.5883,9.9578 C36.8103,6.2888 46.7753,6.0168 54.6603,5.1378 C78.0863,2.5238 101.9473,1.5278 125.4843,3.0128 C136.1423,3.6858 147.0533,4.7648 157.2893,7.9678 C164.2033,10.1308 171.4203,13.3338 173.1443,20.9918 C174.6883,27.8528 173.7813,34.7098 167.3443,38.5958 M133.7003,1.7988 C107.2783,-0.7372 80.1923,0.4338 53.8553,3.4598 C44.0353,4.5878 30.9593,4.9108 23.6653,12.4538 C20.7693,15.4488 18.8143,19.2178 16.8603,22.8518 C14.0793,28.0248 10.9673,32.8598 7.2233,37.3918 C6.1613,38.6768 -2.0767,46.0888 0.7303,48.3098 C0.8003,48.4038 0.8973,48.4818 1.0533,48.5178 C1.1743,48.5808 1.2973,48.5908 1.4193,48.5758 C5.4423,49.2278 10.1453,45.3218 13.8273,44.3328 C22.4953,42.0058 31.5153,45.9028 40.1843,46.8878 C59.5163,49.0858 79.2013,47.6778 98.5663,46.6598 C107.6143,46.1848 116.6683,45.6638 125.7303,45.5678 C134.3573,45.4758 143.0083,45.6528 151.5963,44.6768 C161.5443,43.5458 174.1423,40.3648 175.4763,28.5648 C178.0343,5.9168 150.0093,3.3638 133.7003,1.7988" id="Fill-13" fill="#161616" mask="url(#mask-2)"></path>
                </g>
                <g id="Group-18" transform="translate(0.000000, 15.588200)">
                    <mask id="mask-4" fill="white">
                        <use xlink:href="#path-3"></use>
                    </mask>
                    <g id="Clip-17"></g>
                    <path d="M67.1641,23.0484 C67.1661,24.5124 68.1511,25.9114 68.1201,27.3904 C68.0281,31.7444 63.1111,32.6144 59.9421,32.6154 C56.6401,32.6164 53.2661,31.7454 50.4581,30.0034 C49.0811,29.1494 47.9721,27.9424 46.9561,26.6074 C46.9141,26.5004 46.8561,26.4234 46.7781,26.3774 C46.6511,26.2074 46.5281,26.0324 46.4041,25.8594 C46.3781,25.7124 46.3241,25.5724 46.1981,25.4614 C46.1381,25.4084 46.0801,25.3694 46.0201,25.3194 C43.9851,22.3904 42.1441,19.1784 38.9671,17.6624 C36.0931,16.2914 31.7391,17.6834 28.7281,18.9524 C28.9391,17.8884 29.3711,16.7214 30.2071,16.2084 C31.0801,15.6734 30.9341,13.9194 29.8231,14.6014 C26.2421,16.8004 25.7071,23.3134 28.9621,25.9584 C29.7441,26.5924 31.0011,25.0384 30.2181,24.4014 C29.0901,23.4854 28.6061,22.1874 28.5631,20.7964 C31.2701,19.6164 35.6241,18.1364 38.3121,19.5834 C39.7591,20.3614 41.0791,21.7784 42.2431,23.2764 C33.6871,21.2174 26.3801,36.1984 24.5291,42.3544 C24.1321,43.6734 23.7661,45.0344 23.4451,46.4224 C23.4061,46.4824 23.3601,46.5314 23.3301,46.6034 C20.8631,52.4854 15.8801,56.1784 9.6021,57.3104 C8.1481,57.5724 5.3251,58.1394 3.9291,57.4154 C2.7361,57.6044 2.4541,57.1994 3.0821,56.1994 C3.1311,55.1624 3.6791,54.4504 4.7271,54.0614 C5.2431,53.3664 5.7811,52.9834 6.1231,52.1524 C6.4351,51.3974 6.3671,50.5644 6.4791,49.7724 C6.8801,46.9354 7.7091,44.3504 9.2331,41.9064 C11.5441,38.1974 17.7391,32.2994 22.7211,33.5754 C23.6541,33.8154 24.6451,32.0854 23.6191,31.8214 C18.9971,30.6384 13.4961,34.7114 10.5271,37.7794 C9.8381,38.4914 9.2041,39.2574 8.6181,40.0624 C9.2171,29.0014 16.7531,16.9644 26.7071,9.5064 C27.1631,9.6464 27.7681,9.1704 27.9331,8.6214 C38.3871,1.3284 51.2061,-0.8626 61.4401,8.1444 C63.9451,10.3484 66.5481,13.4544 67.5251,16.7624 C68.2271,19.1384 67.1621,20.8504 67.1641,23.0484 M47.8371,30.2904 C50.3181,32.4874 53.2671,33.7914 57.0501,34.2764 C58.6741,34.4844 60.6541,34.5234 62.5711,34.2234 C61.0371,38.4394 56.5801,38.9714 52.6011,36.7394 C50.3261,35.4634 48.7451,32.9264 47.8371,30.2904 M44.3371,37.4634 C43.8091,36.5354 42.3341,37.8704 42.8131,38.7124 C43.2991,39.5664 43.8921,40.3174 44.5551,40.9824 C43.4011,41.7044 40.5181,41.8814 39.6591,42.0824 C37.8081,42.5164 35.9211,43.0204 34.2551,43.9694 C31.2921,45.6564 29.8311,48.4284 29.1701,51.6974 C28.1901,56.5404 27.9661,69.3624 34.0471,71.4084 C38.2151,72.8104 41.8971,67.8924 44.3731,65.4334 C47.2791,62.5474 45.9851,65.3944 45.3011,67.8404 C44.2901,71.4584 42.6241,75.6924 38.9771,77.4244 C37.5611,78.0964 36.0871,78.2664 34.6131,78.1154 C34.5991,78.1084 34.5931,78.0944 34.5781,78.0884 C23.6011,73.2364 22.9721,56.9194 25.0001,47.0284 C26.3081,40.6494 28.6791,32.9084 33.6121,28.3754 C36.6361,25.5964 41.4791,24.0144 44.8951,26.9814 C45.0431,27.1894 45.1961,27.3844 45.3471,27.5834 C45.3481,27.6054 45.3381,27.6274 45.3411,27.6494 C46.0391,33.3264 49.4701,38.9184 55.4771,39.7174 C59.5851,40.2644 62.5281,38.5354 63.9401,35.1034 C64.3341,44.7244 48.7011,45.1264 44.3371,37.4634 M41.0501,50.7404 C41.7141,49.9114 42.7461,48.4534 43.5451,47.8014 C43.5941,47.7614 43.6381,47.7184 43.6771,47.6734 C43.6631,47.8424 43.6511,48.0304 43.6441,48.2624 C43.5281,52.6824 47.0471,55.7684 46.9901,60.1684 C46.9891,60.2984 47.0101,60.4054 47.0471,60.4954 C47.0591,60.6164 47.0701,60.7364 47.0821,60.8584 C47.1111,61.1594 47.1881,61.3984 47.4941,61.5204 C48.8341,62.0554 49.8581,60.9684 51.0771,60.4814 C55.3161,58.7864 57.1521,61.9664 60.9921,61.6734 C63.4201,61.4884 65.9791,59.2614 63.5811,62.5524 C60.2581,67.1124 50.6091,69.8774 47.8761,62.9954 C47.8631,62.9624 47.8401,62.9474 47.8241,62.9184 C47.4211,61.9474 46.9231,61.7134 46.3501,61.8814 C46.2141,61.8654 46.0621,61.8764 45.8751,61.9534 C39.0161,64.7814 38.0401,54.5034 41.0501,50.7404 M12.1071,58.4334 C16.3691,57.1324 20.0111,54.6244 22.5781,51.0644 C21.9481,55.5064 21.9211,60.0564 22.9841,64.2744 C23.9961,68.2914 25.7741,72.6894 28.5991,75.9594 C26.9911,75.0364 25.4951,73.9544 24.2131,72.9654 C19.1441,69.0534 15.1021,64.0614 12.1071,58.4334 M10.3061,10.6424 C8.8501,9.9414 7.7281,9.8754 6.1991,9.8154 C4.3501,9.7424 2.6431,10.5354 4.2881,8.6464 C8.3271,4.0054 21.5101,3.0484 25.8061,8.4274 C22.2631,11.0424 19.0861,14.1214 16.4241,17.3484 C15.0631,14.6164 13.1071,11.9924 10.3061,10.6424 M46.6431,0.6894 C39.8291,0.7374 33.1961,3.3654 27.4041,7.2894 C25.4781,4.8914 21.5051,3.9114 18.7931,3.4674 C13.5801,2.6144 8.3021,3.5014 4.0921,6.8194 C3.0961,7.6054 0.9391,9.2194 1.6271,10.8244 C2.1361,12.0134 3.9661,11.6614 4.9181,11.6934 C10.0491,11.8624 12.9961,14.5774 15.1031,19.0144 C10.1131,25.6574 6.5351,34.4864 6.8791,42.8854 C6.1881,44.2274 5.6321,45.6374 5.2521,47.0924 C4.9311,48.3214 5.0621,49.7344 4.7081,50.9194 C4.0411,53.1474 2.1791,53.6994 0.8341,55.3754 C-2.7559,59.8504 6.2551,59.5634 8.7011,59.2044 C9.2001,59.1314 9.6921,59.0404 10.1781,58.9374 C14.5471,67.4924 23.4591,78.5224 33.7141,79.9094 C38.1401,80.5084 41.8101,78.0644 44.1791,74.4624 C45.2781,72.7914 47.1621,69.2814 47.8381,66.3434 C50.7781,69.2734 56.0231,69.6954 59.6501,67.9044 C62.1191,66.6854 67.6381,62.4044 66.6561,59.1554 C66.5711,58.8754 66.3641,58.6834 66.0601,58.6754 C64.9701,58.6504 64.0691,59.2094 63.0121,59.4584 C59.3441,60.3214 59.0901,58.8584 56.0801,58.0874 C55.2951,57.8864 48.6161,58.4734 48.7321,59.6874 C48.7281,59.6424 48.7101,59.6124 48.7021,59.5724 C48.6781,56.2014 46.6891,53.7544 45.8011,50.6134 C45.4491,49.3654 46.1751,45.4194 44.2481,45.0184 C43.8341,44.9324 43.4811,45.1064 43.2101,45.4204 C40.3011,48.8044 36.6301,52.9344 37.3601,57.7684 C37.8951,61.3094 40.4061,63.9834 43.5931,64.0684 C41.0581,66.7454 37.4081,71.6254 33.9601,69.1514 C31.9111,67.6804 31.2811,63.7014 30.8921,61.4394 C29.5511,53.6484 30.5001,46.0814 39.1301,43.9614 C41.0961,43.4784 44.0261,43.4324 45.6861,41.9784 C53.0941,47.6434 67.0561,44.0854 65.5511,33.4104 C67.1711,32.7274 68.5331,31.6524 69.2821,30.0304 C69.8431,28.8164 69.9211,27.1794 69.7561,25.8894 C69.5341,24.1474 68.8771,23.2094 69.1651,21.3094 C69.2771,20.5744 69.7621,19.9654 69.8341,19.1784 C70.2081,15.0504 66.5151,10.3324 63.8291,7.6484 C59.2231,3.0454 53.1331,0.6434 46.6431,0.6894" id="Fill-16" fill="#161616" mask="url(#mask-4)"></path>
                </g>
                <path d="M52.209,34.0472 C51.72,33.0122 50.834,32.1272 49.906,31.4012 C48.797,30.5302 47.639,30.0902 46.439,29.8892 C46.405,29.6942 46.287,29.5282 46.068,29.4252 C46.023,27.5682 48.416,25.6472 49.748,24.8092 C51.901,23.4552 54.675,22.9382 56.787,24.6622 C60.377,27.5922 55.777,33.1372 52.209,34.0472 M57.584,22.7652 C54.783,20.8772 51.287,21.8482 48.705,23.6332 C47.139,24.7142 45.239,26.4962 44.588,28.5022 C43.616,27.7202 42.755,26.7002 41.947,25.8732 C41.257,25.1662 39.984,26.7052 40.692,27.4302 C41.453,28.2092 42.236,29.0892 43.104,29.8372 C42.458,29.9002 41.802,29.9862 41.135,30.0862 C40.164,30.2312 39.845,32.0432 41.081,31.8592 C43.5,31.4982 45.908,31.1182 48.077,32.5322 C49.201,33.2662 51.199,34.8132 50.867,36.3892 C50.598,37.6672 52.302,37.4522 52.518,36.4242 C52.569,36.1852 52.587,35.9532 52.591,35.7242 C57.534,34.2412 62.977,26.3982 57.584,22.7652" id="Fill-19" fill="#161616"></path>
                <path d="M54.1158,25.9227 C52.8408,25.5937 51.3758,26.1497 50.8898,27.4407 C50.4048,28.7297 51.0228,30.2947 52.2198,30.8487 C52.4668,30.9637 52.7238,31.0277 52.9818,31.0497 C52.5248,30.7927 52.2458,29.9007 52.3828,29.3697 C52.6558,28.3047 53.4798,28.3587 54.0358,28.7667 C54.5388,29.1357 54.7938,29.8077 54.6058,30.4047 C54.5738,30.5057 54.5258,30.5957 54.4708,30.6807 C54.8688,30.4267 55.4918,29.9567 55.7058,29.4867 C56.2768,28.2337 55.7048,26.3327 54.1158,25.9227" id="Fill-21" fill="#161616"></path>
            </g>
        </g>
    </g>
</svg>