<?xml version="1.0" encoding="UTF-8"?>
<svg width="223px" height="103px" viewBox="0 0 223 103" version="1.1" xmlns="http://www.w3.org/2000/svg" xmlns:xlink="http://www.w3.org/1999/xlink">
    <!-- Generator: Sketch 49 (51002) - http://www.bohemiancoding.com/sketch -->
    <title>Page 1</title>
    <desc>Created with Sketch.</desc>
    <defs></defs>
    <g id="Page-1" stroke="none" stroke-width="1" fill="none" fill-rule="evenodd">
        <g id="POST--VIDEO-Copy" transform="translate(-1102.000000, -814.000000)" fill="#FFFFFF">
            <g id="Page-1" transform="translate(1102.000000, 814.000000)">
                <path d="M46.4365,5.412 C48.3725,6.477 48.8245,9.265 48.7905,11.788 C48.7555,11.747 48.7325,11.698 48.6955,11.658 C47.6765,10.569 46.3845,10.824 45.1385,10.208 C43.9085,9.6 42.3585,7.943 42.5445,6.428 C42.7485,4.769 45.2715,4.771 46.4365,5.412 M44.1425,11.931 C45.0165,12.361 46.2595,12.267 47.0445,12.83 C47.9295,13.464 48.1705,14.787 48.4585,15.757 C48.6035,16.245 48.9935,16.302 49.3655,16.151 C49.7165,16.055 50.0535,15.777 50.1245,15.342 C50.1245,15.336 50.1255,15.329 50.1265,15.322 C50.1425,15.265 50.1495,15.209 50.1525,15.152 C50.7415,11.374 51.0695,4.054 46.1095,3.27 C43.0515,2.787 40.0935,4.954 41.0075,8.212 C41.4525,9.796 42.6745,11.209 44.1425,11.931" id="Fill-1"></path>
                <path d="M63.7451,8.8539 C65.0861,9.9229 64.3491,11.4089 63.0071,12.0339 C61.4001,12.7819 59.6281,12.1179 57.9731,12.6759 C57.2501,12.9189 56.5771,13.3009 55.9521,13.7619 C57.6811,10.1919 60.5331,6.2909 63.7451,8.8539 M52.7491,17.8289 C52.7501,17.8439 52.7501,17.8589 52.7521,17.8739 C52.7601,17.9019 52.7701,17.9279 52.7821,17.9539 C52.8881,18.3059 53.2991,18.3849 53.7031,18.2339 C53.9521,18.1589 54.1961,18.0009 54.3611,17.7259 C55.1431,16.4209 56.3861,15.0649 57.8161,14.4919 C59.0181,14.0099 60.2111,14.3609 61.4551,14.1969 C62.3911,14.0739 63.2901,13.7669 64.0801,13.2419 C66.4711,11.6539 67.1631,8.1439 64.1471,6.8089 C58.1481,4.1539 54.2111,13.0229 52.8141,17.4139 C52.7511,17.5719 52.7271,17.7109 52.7491,17.8289" id="Fill-3"></path>
                <path d="M67.164,45.2074 C67.166,46.6714 68.151,48.0704 68.12,49.5494 C68.028,53.9034 63.111,54.7734 59.942,54.7744 C56.64,54.7754 53.266,53.9044 50.458,52.1624 C49.082,51.3084 47.972,50.1014 46.956,48.7664 C46.914,48.6594 46.855,48.5824 46.778,48.5364 C46.651,48.3654 46.528,48.1914 46.404,48.0184 C46.378,47.8714 46.324,47.7314 46.197,47.6204 C46.139,47.5674 46.079,47.5284 46.02,47.4784 C43.985,44.5504 42.144,41.3374 38.967,39.8214 C36.094,38.4504 31.738,39.8424 28.728,41.1114 C28.938,40.0474 29.371,38.8804 30.207,38.3674 C31.079,37.8324 30.935,36.0784 29.823,36.7604 C26.242,38.9594 25.707,45.4724 28.963,48.1174 C29.743,48.7514 31.002,47.1974 30.218,46.5604 C29.09,45.6444 28.605,44.3464 28.563,42.9554 C31.269,41.7754 35.624,40.2954 38.312,41.7424 C39.76,42.5204 41.079,43.9374 42.243,45.4354 C33.687,43.3764 26.38,58.3574 24.529,64.5134 C24.133,65.8324 23.767,67.1934 23.445,68.5824 C23.406,68.6414 23.36,68.6904 23.33,68.7624 C20.863,74.6444 15.88,78.3374 9.602,79.4694 C8.148,79.7314 5.325,80.2984 3.929,79.5744 C2.736,79.7634 2.454,79.3584 3.082,78.3584 C3.131,77.3214 3.68,76.6094 4.727,76.2204 C5.243,75.5254 5.781,75.1424 6.123,74.3114 C6.435,73.5564 6.367,72.7234 6.479,71.9314 C6.88,69.0944 7.71,66.5094 9.233,64.0654 C11.545,60.3564 17.738,54.4584 22.722,55.7344 C23.654,55.9744 24.645,54.2444 23.619,53.9804 C18.997,52.7974 13.496,56.8704 10.527,59.9384 C9.839,60.6504 9.203,61.4164 8.617,62.2214 C9.217,51.1604 16.753,39.1234 26.707,31.6654 C27.164,31.8054 27.768,31.3294 27.934,30.7804 C38.387,23.4874 51.207,21.2964 61.44,30.3034 C63.944,32.5074 66.549,35.6134 67.525,38.9214 C68.227,41.2974 67.162,43.0094 67.164,45.2074 M47.838,52.4494 C50.318,54.6464 53.267,55.9504 57.051,56.4354 C58.674,56.6434 60.654,56.6824 62.57,56.3824 C61.037,60.5984 56.58,61.1304 52.601,58.8984 C50.326,57.6224 48.745,55.0854 47.838,52.4494 M44.337,59.6224 C43.809,58.6944 42.334,60.0294 42.812,60.8714 C43.299,61.7254 43.892,62.4764 44.555,63.1414 C43.401,63.8634 40.518,64.0404 39.659,64.2414 C37.808,64.6754 35.922,65.1794 34.255,66.1284 C31.292,67.8154 29.832,70.5874 29.171,73.8564 C28.19,78.6994 27.967,91.5214 34.047,93.5674 C38.215,94.9694 41.896,90.0514 44.373,87.5924 C47.279,84.7064 45.985,87.5534 45.302,89.9994 C44.291,93.6174 42.624,97.8514 38.977,99.5834 C37.56,100.2554 36.087,100.4254 34.613,100.2744 C34.599,100.2674 34.594,100.2534 34.578,100.2474 C23.601,95.3954 22.972,79.0784 25,69.1874 C26.309,62.8084 28.68,55.0674 33.612,50.5344 C36.637,47.7554 41.479,46.1734 44.895,49.1404 C45.043,49.3484 45.196,49.5434 45.348,49.7424 C45.348,49.7644 45.339,49.7864 45.341,49.8084 C46.039,55.4854 49.47,61.0774 55.476,61.8764 C59.586,62.4234 62.528,60.6944 63.94,57.2624 C64.334,66.8834 48.701,67.2854 44.337,59.6224 M41.051,72.8994 C41.714,72.0704 42.746,70.6124 43.545,69.9604 C43.595,69.9204 43.638,69.8774 43.677,69.8324 C43.663,70.0014 43.65,70.1894 43.644,70.4214 C43.528,74.8414 47.047,77.9274 46.99,82.3274 C46.988,82.4574 47.01,82.5644 47.047,82.6544 C47.059,82.7754 47.07,82.8954 47.082,83.0174 C47.111,83.3184 47.188,83.5574 47.494,83.6794 C48.834,84.2144 49.858,83.1274 51.076,82.6404 C55.316,80.9454 57.152,84.1254 60.992,83.8324 C63.42,83.6474 65.979,81.4204 63.581,84.7114 C60.258,89.2714 50.609,92.0364 47.877,85.1544 C47.863,85.1214 47.84,85.1064 47.824,85.0774 C47.421,84.1064 46.923,83.8724 46.35,84.0404 C46.214,84.0244 46.061,84.0354 45.875,84.1124 C39.016,86.9404 38.041,76.6624 41.051,72.8994 M12.106,80.5924 C16.369,79.2914 20.011,76.7834 22.577,73.2234 C21.948,77.6654 21.922,82.2154 22.983,86.4334 C23.996,90.4504 25.774,94.8484 28.599,98.1184 C26.991,97.1954 25.495,96.1134 24.213,95.1244 C19.144,91.2124 15.102,86.2204 12.106,80.5924 M10.307,32.8014 C8.851,32.1004 7.728,32.0344 6.199,31.9744 C4.351,31.9014 2.643,32.6944 4.288,30.8054 C8.327,26.1644 21.51,25.2074 25.806,30.5864 C22.263,33.2014 19.086,36.2804 16.424,39.5074 C15.063,36.7754 13.107,34.1514 10.307,32.8014 M46.643,22.8484 C39.828,22.8964 33.195,25.5244 27.404,29.4484 C25.478,27.0504 21.506,26.0704 18.794,25.6264 C13.58,24.7734 8.302,25.6604 4.093,28.9784 C3.096,29.7644 0.939,31.3784 1.627,32.9834 C2.137,34.1724 3.967,33.8204 4.919,33.8524 C10.049,34.0214 12.996,36.7364 15.103,41.1734 C10.113,47.8164 6.534,56.6454 6.879,65.0444 C6.187,66.3864 5.632,67.7964 5.252,69.2514 C4.932,70.4804 5.062,71.8934 4.708,73.0784 C4.042,75.3064 2.179,75.8584 0.835,77.5344 C-2.757,82.0094 6.255,81.7224 8.701,81.3634 C9.2,81.2904 9.691,81.1994 10.179,81.0964 C14.548,89.6514 23.459,100.6814 33.714,102.0684 C38.14,102.6674 41.81,100.2234 44.179,96.6214 C45.277,94.9504 47.162,91.4404 47.839,88.5024 C50.778,91.4324 56.023,91.8544 59.65,90.0634 C62.119,88.8444 67.638,84.5634 66.655,81.3144 C66.571,81.0344 66.364,80.8424 66.06,80.8344 C64.97,80.8094 64.068,81.3684 63.012,81.6174 C59.345,82.4804 59.09,81.0174 56.08,80.2464 C55.295,80.0454 48.616,80.6324 48.732,81.8464 C48.727,81.8014 48.711,81.7714 48.701,81.7314 C48.678,78.3604 46.689,75.9134 45.802,72.7724 C45.448,71.5244 46.175,67.5784 44.249,67.1774 C43.834,67.0914 43.481,67.2654 43.211,67.5794 C40.301,70.9634 36.63,75.0934 37.36,79.9274 C37.894,83.4684 40.406,86.1424 43.593,86.2274 C41.059,88.9044 37.408,93.7844 33.96,91.3104 C31.911,89.8394 31.281,85.8604 30.892,83.5984 C29.551,75.8074 30.501,68.2404 39.13,66.1204 C41.096,65.6374 44.026,65.5914 45.686,64.1374 C53.094,69.8024 67.056,66.2444 65.551,55.5694 C67.171,54.8864 68.533,53.8114 69.282,52.1894 C69.844,50.9754 69.921,49.3384 69.757,48.0484 C69.534,46.3064 68.877,45.3684 69.166,43.4684 C69.277,42.7334 69.763,42.1244 69.834,41.3374 C70.208,37.2094 66.516,32.4914 63.829,29.8074 C59.223,25.2044 53.134,22.8024 46.643,22.8484" id="Fill-5"></path>
                <path d="M52.2089,40.618 C51.7209,39.583 50.8329,38.698 49.9059,37.972 C48.7969,37.101 47.6389,36.661 46.4389,36.46 C46.4039,36.265 46.2869,36.099 46.0679,35.996 C46.0219,34.139 48.4159,32.218 49.7479,31.38 C51.9009,30.026 54.6749,29.509 56.7869,31.233 C60.3769,34.163 55.7769,39.708 52.2089,40.618 M57.5839,29.336 C54.7829,27.448 51.2869,28.419 48.7049,30.204 C47.1399,31.285 45.2389,33.067 44.5879,35.073 C43.6159,34.291 42.7549,33.271 41.9469,32.444 C41.2569,31.737 39.9839,33.276 40.6909,34.001 C41.4529,34.78 42.2359,35.66 43.1049,36.408 C42.4569,36.471 41.8029,36.557 41.1349,36.657 C40.1629,36.802 39.8449,38.614 41.0809,38.43 C43.4999,38.069 45.9079,37.689 48.0769,39.103 C49.2009,39.837 51.1979,41.384 50.8669,42.96 C50.5979,44.238 52.3019,44.023 52.5189,42.995 C52.5679,42.756 52.5869,42.524 52.5909,42.295 C57.5339,40.812 62.9769,32.969 57.5839,29.336" id="Fill-7"></path>
                <path d="M54.1162,32.4935 C52.8412,32.1645 51.3762,32.7205 50.8892,34.0115 C50.4042,35.3005 51.0232,36.8655 52.2202,37.4195 C52.4672,37.5345 52.7232,37.5985 52.9812,37.6205 C52.5242,37.3635 52.2462,36.4715 52.3822,35.9405 C52.6562,34.8755 53.4802,34.9295 54.0362,35.3375 C54.5392,35.7065 54.7942,36.3785 54.6062,36.9755 C54.5742,37.0765 54.5252,37.1665 54.4702,37.2515 C54.8692,36.9975 55.4922,36.5275 55.7062,36.0575 C56.2762,34.8045 55.7052,32.9035 54.1162,32.4935" id="Fill-9"></path>
                <path d="M128.3642,36.516 C114.7392,38.811 111.8592,18.776 125.5002,16.489 C134.4512,16.006 138.2342,34.853 128.3642,36.516 M125.8942,14.665 C125.8602,14.667 125.8292,14.688 125.7952,14.695 C125.7532,14.697 125.7232,14.683 125.6772,14.691 C119.1112,15.731 114.0922,20.94 114.5512,27.823 C115.0142,34.76 121.3062,39.417 128.1192,38.343 C140.1572,36.446 137.1702,13.886 125.8942,14.665" id="Fill-11"></path>
                <path d="M144.4755,16.973 C144.4405,16.968 144.4135,16.966 144.3795,16.962 C144.3765,16.995 144.3725,17.029 144.3705,17.062 C144.4125,17.04 144.4475,17.011 144.4755,16.973" id="Fill-13"></path>
                <path d="M144.3251,28.6254 L144.3251,25.3374 C144.3251,22.8824 144.6241,20.2134 144.3251,17.7754 C144.3061,17.6234 144.3421,17.3474 144.3701,17.0624 C143.9681,17.2704 143.0951,16.8114 144.3801,16.9624 C144.4081,16.6424 144.4191,16.3254 144.3251,16.1654 C144.5741,16.5924 144.5781,16.8374 144.4751,16.9734 C144.4941,16.9754 144.5061,16.9764 144.5251,16.9794 C146.6981,17.2764 149.0411,16.5514 151.2971,16.9024 C154.9691,17.4744 158.6111,20.0824 156.9221,24.3264 C155.2051,28.6384 148.5281,28.9394 144.3251,28.6254 M158.9891,22.3534 C159.4441,14.3024 149.0481,14.3094 143.4921,15.3824 C143.0231,15.4734 142.6041,16.0154 142.6041,16.4834 L142.6041,38.5144 C142.6041,39.7624 144.3251,39.0644 144.3251,38.0854 L144.3251,31.0194 C148.7851,33.2494 153.2441,35.4794 157.7041,37.7084 C158.5571,38.1354 159.5701,36.4394 158.6001,35.9544 C154.9291,34.1184 151.2581,32.2824 147.5861,30.4474 C152.8701,30.0934 158.6631,28.1174 158.9891,22.3534" id="Fill-15"></path>
                <path d="M192.5214,25.87 L196.3304,16.822 C197.9174,19.771 199.5064,22.721 201.0944,25.67 C198.2374,25.737 195.3794,25.803 192.5214,25.87 M197.1014,14.176 C196.7534,13.529 195.8084,14.065 195.6044,14.549 C192.6584,21.549 189.7124,28.549 186.7664,35.549 C186.2614,36.747 187.7884,37.117 188.2364,36.052 C189.4084,33.268 190.5804,30.484 191.7504,27.701 C195.1584,27.621 198.5644,27.542 201.9704,27.462 C201.9984,27.461 202.0224,27.446 202.0484,27.442 C203.3194,29.801 204.5884,32.16 205.8594,34.518 C206.3634,35.454 207.8414,34.121 207.3824,33.27 C203.9564,26.905 200.5294,20.54 197.1014,14.176" id="Fill-17"></path>
                <path d="M220.7851,28.347 C219.8841,39.922 207.8361,43.779 198.0821,45.395 C184.9511,47.571 171.5701,46.483 158.3481,47.569 C145.7311,48.605 133.7651,50.218 121.1871,47.648 C113.3961,46.056 106.4081,44.038 98.3341,44.727 C95.3991,44.977 92.4921,45.461 89.5971,45.993 C87.0061,46.468 83.8961,47.492 81.2231,46.967 C82.7771,46.895 87.6631,42.763 89.0291,41.722 C92.5231,39.058 95.8561,36 98.2081,32.252 C99.6531,29.947 100.3191,27.393 101.5621,24.99 C103.4271,21.387 106.2601,18.285 109.3391,15.683 C114.5541,11.276 120.6531,8.535 127.2561,7.005 C145.2361,2.839 164.3851,1.15 182.8021,2.297 C198.7851,3.292 222.4221,7.341 220.7851,28.347 M215.5031,9.715 C208.6531,4.045 199.0281,2.176 190.4451,1.124 C169.6471,-1.425 147.3181,0.527 126.9461,5.317 C119.8991,6.974 113.4131,10.09 107.9381,14.874 C105.3361,17.149 102.9761,19.735 101.1341,22.669 C99.0551,25.981 98.2051,29.796 95.8781,32.973 C92.1551,38.054 86.8621,41.185 81.8901,44.837 C81.0651,45.443 78.2261,47.364 79.7391,48.485 C79.8091,48.571 79.9051,48.642 80.0531,48.677 C80.1621,48.731 80.2731,48.749 80.3841,48.741 C84.7691,49.629 90.0211,47.558 94.2981,46.968 C104.0171,45.624 112.3171,47.912 121.7631,49.692 C133.9571,51.99 145.6421,50.398 157.8591,49.392 C172.2311,48.209 186.8651,49.586 201.0641,46.599 C209.5001,44.825 219.0541,41.003 221.7811,31.973 C224.1001,24.292 221.7261,14.866 215.5031,9.715" id="Fill-19"></path>
                <path d="M176.3496,30.4642 C174.1626,28.8802 171.7496,26.5322 169.2706,25.2422 C169.5956,24.9882 170.0176,24.5832 170.1296,24.4962 C171.6616,23.2982 173.2406,22.1582 174.8126,21.0142 C176.9146,19.4832 179.0296,17.9672 181.1536,16.4652 C182.0936,15.8002 181.4136,14.3822 180.3496,15.1352 C177.6926,17.0152 175.0456,18.9132 172.4236,20.8432 C171.7856,21.3142 169.8516,22.3862 168.4556,23.5422 C168.4236,20.4662 168.2466,17.3982 167.8406,14.3682 C167.6906,13.2412 166.0366,14.2992 166.1616,15.2322 C167.1226,22.4062 166.7816,29.8372 166.1406,37.0142 C166.0316,38.2482 167.7766,37.5472 167.8626,36.5862 C168.1266,33.6162 168.3286,30.6102 168.4166,27.5972 C170.0016,28.8252 172.3766,30.0542 173.1326,30.6012 C175.8826,32.5892 178.6286,34.5832 181.3736,36.5782 C182.1906,37.1722 183.4406,35.6112 182.6286,35.0222 C180.5366,33.5002 178.4446,31.9812 176.3496,30.4642" id="Fill-21"></path>
            </g>
        </g>
    </g>
</svg>