<?xml version="1.0" encoding="UTF-8"?>
<svg width="156px" height="86px" viewBox="0 0 156 86" version="1.1" xmlns="http://www.w3.org/2000/svg" xmlns:xlink="http://www.w3.org/1999/xlink">
    <!-- Generator: Sketch 49 (51002) - http://www.bohemiancoding.com/sketch -->
    <title>Page 1</title>
    <desc>Created with Sketch.</desc>
    <defs>
        <polygon id="path-1" points="0 0.886241872 102.573351 0.886241872 102.573351 63 0 63"></polygon>
    </defs>
    <g id="Page-1" stroke="none" stroke-width="1" fill="none" fill-rule="evenodd">
        <g id="POST--VIDEO-Copy" transform="translate(-512.000000, -262.000000)">
            <g id="Page-1" transform="translate(512.000000, 262.000000)">
                <g id="Group-3" transform="translate(0.000000, 22.106000)">
                    <mask id="mask-2" fill="white">
                        <use xlink:href="#path-1"></use>
                    </mask>
                    <g id="Clip-2"></g>
                    <path d="M100.2151,38.0184 C97.4621,46.5734 86.8451,49.7694 78.5831,48.6404 C79.5851,46.5944 80.2831,44.3054 80.5771,41.7274 C82.1701,40.0624 83.4231,38.1134 84.2411,35.9454 C87.6621,33.2654 93.0321,36.7934 97.1751,35.6314 C97.4921,35.5424 100.6991,34.0614 100.7131,34.0684 C101.2701,34.3714 100.3161,37.7034 100.2151,38.0184 M77.7441,28.2364 C77.8431,29.5984 77.8841,31.0224 77.6861,32.3874 C76.4081,31.6284 74.4251,31.7004 73.2411,32.0954 C71.7961,32.5784 70.6681,33.7194 70.0251,35.0864 C67.6031,35.1294 64.8741,35.6904 63.2641,37.4924 C61.7601,36.3924 60.4551,34.9344 59.4091,33.3624 C60.7021,33.5314 62.0121,33.5504 63.3361,33.4024 C67.9771,32.8864 73.5771,30.9034 77.7441,28.2364 M70.2581,36.9024 C70.7651,36.9144 71.1941,36.4634 71.3281,36.0084 C71.9011,34.0774 75.8961,32.3534 77.0901,34.5834 C76.9891,34.8264 76.8871,35.0694 76.7591,35.3024 C74.6611,39.1274 69.3631,40.3954 65.5011,38.7784 C65.1881,38.6474 64.8861,38.4844 64.5851,38.3214 C65.9671,37.0294 68.5171,36.8644 70.2581,36.9024 M34.3491,59.8394 C34.6771,59.7494 35.0051,59.6624 35.3271,59.5614 C38.7761,58.4804 41.4291,56.6114 43.3641,54.1494 C43.4681,54.1714 43.5931,54.1694 43.7421,54.1344 C47.2461,53.3064 50.6191,51.1604 51.5281,47.5174 C52.2791,44.5044 51.3611,41.8344 51.4261,38.8874 C51.4991,35.5594 54.3911,34.3244 57.2891,33.9864 C57.3471,33.9794 57.4001,33.9484 57.4551,33.9284 C58.7001,35.9764 60.3681,37.8794 62.3391,39.2454 C62.3851,39.6674 62.7761,39.8684 63.1841,39.7854 C65.0301,40.8684 67.1041,41.4754 69.3291,41.2984 C74.4311,40.8934 77.3481,37.9954 78.6461,34.1284 C78.6591,34.0944 78.6661,34.0604 78.6761,34.0254 C79.3721,31.8974 79.5831,29.4854 79.3961,27.0314 C79.9461,26.3074 79.3161,25.2294 78.3731,25.9314 C72.8361,30.0524 64.8451,32.5924 58.0361,30.9654 C57.8541,30.6254 57.5331,30.6064 57.2241,30.7644 C56.7711,30.6314 56.3221,30.4794 55.8821,30.3074 C52.4971,28.9784 49.6351,29.9404 47.6231,33.1134 C46.9211,34.2214 48.4931,34.5634 49.0941,33.6164 C51.3961,29.9854 53.4951,31.4814 55.9571,32.4824 C53.3991,33.0884 50.7561,34.4194 49.9071,36.9584 C49.1131,39.3314 50.2021,42.1974 50.1481,44.6214 C50.0581,48.5764 48.1531,50.9674 44.7541,52.0734 C45.9441,49.9604 46.7261,47.5294 47.1271,44.8624 C47.3091,43.6494 45.5471,44.3504 45.4051,45.2904 C44.2201,53.1694 39.0811,57.6104 31.3561,58.6784 C25.8401,59.4404 18.0091,58.4334 14.4001,53.5064 C13.2891,51.9914 14.7441,53.1194 16.6981,52.7304 C16.8871,52.6934 17.0711,52.6284 17.2591,52.5794 C17.4241,52.5904 17.5891,52.5354 17.7441,52.4484 C19.1361,52.0154 20.4611,51.3094 21.6201,50.4514 C27.0711,46.4194 31.0611,42.6724 38.6221,43.9424 C39.5601,44.0994 40.2611,42.3114 39.1111,42.1184 C34.4121,41.3294 29.9541,42.3044 25.9111,44.8434 C25.1041,45.3504 24.3731,45.9444 23.6661,46.5604 C16.7431,43.8244 11.0661,35.1564 9.9941,27.9204 C9.9871,27.8744 9.9651,27.8544 9.9531,27.8154 C10.3641,26.6354 10.9121,25.5024 11.5831,24.4294 C11.4201,24.9864 11.2831,25.5644 11.1841,26.1294 C11.0061,27.1414 10.7921,28.2124 10.9921,29.2394 C12.0421,34.6244 19.2491,36.6794 23.8941,36.2794 C29.4941,35.7984 34.4831,33.6614 38.5611,30.0254 C38.6731,31.5244 38.9581,33.0414 39.4621,34.5634 C39.8291,35.6684 41.4421,34.6054 41.1411,33.6984 C40.5361,31.8744 40.2661,30.0694 40.2551,28.3074 C40.3851,28.0484 40.3661,27.8094 40.2511,27.6244 C40.7011,14.2944 56.7971,3.8564 69.4981,9.3094 C67.1431,10.4934 65.6001,12.6364 65.9451,15.6764 C66.2151,18.0564 67.3491,20.4354 68.7221,22.4314 C68.3631,22.6054 68.0021,22.7784 67.6651,22.9744 C66.7751,23.4914 66.9201,25.2364 68.0491,24.5804 C70.9631,22.8884 74.5461,22.2724 77.8931,22.5874 C82.3631,23.0084 83.5441,25.7054 83.6361,29.9884 C83.7951,37.3334 78.8401,43.1854 71.9001,45.0994 C70.9651,45.3574 70.6451,47.2034 71.8451,46.8724 C74.3981,46.1684 76.6931,45.0034 78.6421,43.4844 C78.2761,45.5054 77.6391,47.3304 76.7511,48.9564 C76.6291,49.0954 76.5421,49.2534 76.4791,49.4124 C69.2241,61.7664 47.9081,62.7634 34.3491,59.8394 M8.9991,35.6314 C8.9001,34.4064 8.9231,33.1804 9.0481,31.9704 C11.0361,38.5184 16.0461,45.2734 22.0471,47.9974 C20.7921,49.0984 19.4851,50.1064 17.8421,50.6624 C13.0331,47.1494 9.4791,41.5864 8.9991,35.6314 M3.7251,18.3374 C2.5281,16.4474 1.7661,14.2204 1.6821,11.9744 C1.6081,9.9834 1.9861,7.1464 3.0111,5.4554 C3.2441,4.4634 3.8591,3.8194 4.8561,3.5254 C4.7921,3.8604 4.7791,4.1934 4.8171,4.5264 C5.6501,5.3124 6.3211,6.3604 7.3071,7.2094 C10.4751,9.9374 10.5261,12.8784 10.9331,16.7624 C11.0511,17.8884 10.8781,20.2284 11.9781,20.9334 C12.0711,20.9934 12.1711,21.0254 12.2731,21.0444 C12.1361,21.0604 11.9851,21.0814 11.7971,21.1084 C11.0851,21.4344 10.3701,21.7504 9.6501,22.0584 C6.9021,21.9004 4.9261,20.6604 3.7251,18.3374 M19.2931,17.2244 C20.9201,17.0604 22.3071,17.4174 23.7631,17.5234 C23.2481,18.0054 22.7541,18.5174 22.3061,19.0924 C21.0031,20.7704 21.3591,22.0164 23.5981,21.6564 C25.5431,21.3434 27.1021,21.1014 28.6081,21.3424 C27.2451,22.8724 25.4531,24.1074 23.4771,24.5204 C18.6131,25.5394 17.5331,22.2314 13.6101,21.1854 C13.1741,21.0694 12.9191,21.0224 12.6411,21.0224 C12.6941,21.0054 12.7471,20.9874 12.7981,20.9584 C15.2481,19.5394 16.1111,17.5434 19.2931,17.2244 M13.2001,24.6084 C13.2671,24.2544 13.4071,23.8474 13.5151,23.4324 C14.5421,23.9364 15.4681,24.7654 16.5241,25.2664 C18.6801,26.2894 21.0571,26.7924 23.4231,26.2934 C26.0721,25.7364 28.5211,23.9514 30.2071,21.8054 C30.9561,22.1244 31.7201,22.5954 32.5401,23.2804 C34.4371,24.8654 36.1521,27.1214 36.7331,29.5824 C31.4751,33.7354 23.5341,36.2454 17.4231,33.3534 C13.5521,31.5234 12.4191,28.7554 13.2001,24.6084 M42.7881,16.3094 C40.2541,19.7294 38.6571,23.7544 38.5101,28.0024 C38.4401,28.0714 38.3691,28.1404 38.2971,28.2094 C37.3121,24.6934 34.3031,21.2574 30.7761,19.8124 C30.6361,19.6704 30.4511,19.5954 30.2481,19.6184 C28.5201,19.0174 26.6911,18.8924 24.9271,19.4894 C24.1591,19.7494 22.7201,20.9134 23.9211,19.5854 C24.3791,19.0784 25.0411,18.6044 25.5891,18.2024 C26.9261,17.2184 28.3281,16.5604 29.8901,16.0094 C34.3201,14.4444 38.4291,14.8204 42.7881,16.3094 M78.4941,14.2534 C78.6841,16.0984 78.3811,18.2174 77.7011,19.9514 C77.5881,20.2414 77.5941,20.4794 77.6681,20.6654 C75.3031,20.5294 72.8261,20.8804 70.5831,21.6534 C69.6241,20.3334 68.7971,18.8494 68.2391,17.3234 C66.8451,13.5094 68.1431,10.7974 72.3511,10.1594 C75.5681,9.6714 78.1411,10.8314 78.4941,14.2534 M101.1321,32.3934 C100.3181,32.2344 98.4741,33.4884 97.8111,33.6874 C95.1191,34.4944 93.1221,33.9144 90.4601,33.3754 C88.2481,32.9274 86.6051,32.8374 84.9161,33.6644 C85.2921,31.9934 85.4411,30.2304 85.3011,28.3954 C85.0271,24.7584 84.2191,22.0264 80.5131,21.0804 C80.0131,20.9524 79.4981,20.8544 78.9741,20.7804 C79.0521,20.6914 79.1201,20.5844 79.1721,20.4534 C80.0941,18.1004 80.5801,15.2514 80.0891,12.7504 C79.3311,8.8994 75.9731,7.8054 72.4051,8.3864 C72.1731,8.4244 71.9441,8.4694 71.7171,8.5204 C71.6921,8.2954 71.5751,8.0944 71.3291,7.9724 C61.9671,3.3054 50.7091,7.1824 44.1041,14.6964 C38.6191,12.7634 31.5931,12.5684 26.3481,15.6064 C26.2791,15.6064 26.2211,15.5944 26.1381,15.6124 C23.3341,16.2444 20.9281,14.3714 18.0901,15.2454 C16.1991,15.8274 15.3901,17.2764 13.7951,18.1354 C13.4531,18.3184 13.2461,18.4664 13.1241,18.5804 C13.0911,18.4824 13.0171,18.3604 12.8641,18.2114 C12.1361,17.5004 12.5451,15.0294 12.4131,13.8594 C12.1341,11.3714 11.8771,9.1474 10.2261,7.1894 C8.8891,5.6034 7.4221,5.0404 6.5771,3.0964 C6.2001,2.2294 6.8761,1.1674 5.4571,0.9134 C3.1251,0.4934 1.4461,5.0634 0.9631,6.4254 C-0.5939,10.8154 -0.3199,15.5994 2.2011,19.5864 C3.3101,21.3384 5.0071,23.4204 7.1231,23.8914 C8.2241,24.1354 8.9981,23.8374 9.7811,23.5214 C7.5101,27.0484 7.0351,33.7324 7.2331,36.2514 C7.6741,41.8754 10.7621,47.2724 15.0431,50.9954 C13.7061,50.9634 12.2231,51.0034 11.8031,52.2794 C11.3571,53.6354 13.0501,55.0414 13.8991,55.8184 C18.2191,59.7734 24.0941,61.1714 29.8041,60.6614 C43.7901,64.9044 68.8721,64.4074 77.6201,50.3844 C87.1951,51.7534 99.1591,47.7324 101.9851,37.6324 C102.4871,35.8364 103.3361,32.8234 101.1321,32.3934" id="Fill-1" fill="#FFFFFF" mask="url(#mask-2)"></path>
                </g>
                <path d="M53.1501,47.0438 C52.1731,44.9938 51.1371,42.8688 50.8451,40.5988 C50.3191,36.5128 54.0501,33.9708 57.9911,34.7398 C62.1271,35.5468 62.3631,41.5228 61.2181,45.0258 C59.3131,45.0838 57.3701,45.4668 55.6361,45.9618 C54.7611,46.2118 53.9471,46.6118 53.1501,47.0438 M64.2271,45.2548 C63.7771,45.1628 63.3131,45.1078 62.8441,45.0688 C64.3341,40.2138 63.4911,32.6818 57.2561,32.8358 C53.6781,32.9228 49.8631,34.8638 49.1641,38.6238 C48.5671,41.8358 50.0971,45.0888 51.4671,47.9598 C50.7601,48.3308 50.0431,48.6628 49.2821,48.8658 C48.3441,49.1158 48.0251,50.9598 49.2281,50.6388 C50.8371,50.2098 52.1231,49.0928 53.6321,48.4248 C55.7771,47.4758 58.5431,46.7868 61.0901,46.7978 C61.3131,46.9538 61.6331,46.9758 61.9191,46.8298 C62.4021,46.8628 62.8771,46.9158 63.3301,47.0088 C64.2691,47.2028 65.2541,45.4668 64.2271,45.2548" id="Fill-4" fill="#FFFFFF"></path>
                <path d="M56.7112,37.9212 C55.1572,38.2752 53.8792,39.6642 54.0562,41.2872 C54.2332,42.9082 55.7502,44.2132 57.3422,44.1392 C57.6702,44.1242 57.9832,44.0502 58.2732,43.9322 C57.6402,43.9122 56.8552,43.1282 56.7132,42.4952 C56.4302,41.2262 57.3482,40.8302 58.1692,40.9542 C58.9122,41.0662 59.5532,41.6322 59.6742,42.3632 C59.6952,42.4862 59.6912,42.6082 59.6782,42.7262 C59.9702,42.2412 60.3862,41.4052 60.3622,40.7942 C60.2962,39.1642 58.6482,37.4802 56.7112,37.9212" id="Fill-6" fill="#FFFFFF"></path>
                <path d="M70.6213,40.7757 C70.4183,40.1397 70.8653,39.0937 71.3983,38.7397 C72.4673,38.0287 73.1523,38.8067 73.3263,39.6637 C73.4823,40.4407 73.1853,41.2677 72.5563,41.6367 C72.4493,41.6987 72.3363,41.7357 72.2233,41.7637 C72.7713,41.8887 73.6863,42.0197 74.2403,41.7877 C75.7173,41.1707 76.6893,38.9627 75.6063,37.1887 C74.7363,35.7647 73.0123,34.9647 71.5803,35.6907 C70.1503,36.4147 69.4803,38.3647 70.1053,39.9207 C70.2343,40.2417 70.4113,40.5267 70.6213,40.7757" id="Fill-8" fill="#FFFFFF"></path>
                <path d="M136.0569,28.9129 C125.4409,32.8549 124.6249,12.5399 132.8089,12.0629 C137.2639,12.1779 141.6249,14.1079 142.0539,19.0289 C142.4059,23.0849 139.9319,27.4739 136.0569,28.9129 M133.2979,10.2389 C122.8569,10.8479 122.8079,33.3269 134.6249,31.0719 C139.6669,30.1099 143.3559,25.2229 143.7709,20.2349 C144.3089,13.7549 139.2579,10.3919 133.2979,10.2389" id="Fill-10" fill="#FFFFFF"></path>
                <path d="M122.0564,21.3246 L114.3504,21.3246 C113.4024,21.3246 112.7054,23.1486 113.8614,23.1486 L117.7144,23.1486 C118.5634,23.1486 119.5244,23.2766 120.3634,23.1486 C120.7624,23.0886 120.9804,23.1166 121.0944,23.1446 C122.0214,28.0096 113.6444,29.7456 110.5044,28.8036 C105.3864,27.2686 103.7184,17.5756 107.3384,13.8736 C109.1194,12.0516 119.2324,11.2726 119.4104,14.7446 C119.4734,15.9916 121.1814,15.2976 121.1314,14.3166 C120.9204,10.1806 113.2534,10.2906 110.7034,10.6756 C104.5604,11.6026 103.4504,17.8016 104.1334,23.1336 C104.9964,29.8806 111.1104,32.4676 117.2074,30.0746 C119.8254,29.0466 123.9984,25.1606 122.6514,21.8046 C122.5434,21.5346 122.3784,21.3246 122.0564,21.3246" id="Fill-12" fill="#FFFFFF"></path>
                <path d="M151.761,30.0506 C147.58,36.1166 139.244,36.8806 132.502,37.0766 C124.384,37.3136 116.291,36.3756 108.18,36.2416 C104.711,36.1846 101.339,36.2766 98.055,37.5306 C95.655,38.4476 93.574,40.0186 91.139,40.8446 C90.488,40.9646 92.552,34.7926 92.716,34.3526 C93.878,31.2396 95.372,28.1686 96.015,24.8966 C97.017,19.7966 95.795,13.2516 99.547,9.1676 C106.398,1.7096 120.609,1.4506 129.899,1.9286 C140.002,2.4486 149.292,4.8866 152.919,15.3996 C154.551,20.1266 154.696,25.7926 151.761,30.0506 M154.266,13.6286 C149.896,2.2906 139.077,0.2406 128.092,0.0236 C118.497,-0.1664 102.299,0.5966 96.843,10.2516 C95.458,12.7026 95.336,15.5866 95.077,18.3296 C94.603,23.3586 93.67,27.4776 91.863,32.2176 C91.4,33.4296 86.721,42.8906 90.704,42.6636 C90.808,42.6796 90.932,42.6706 91.085,42.6176 C93.899,41.6626 96.281,39.8186 99.116,38.9066 C104.032,37.3276 109.757,38.0836 114.831,38.3486 C123.749,38.8166 133.089,39.8196 141.89,37.7896 C153.371,35.1416 158.461,24.5106 154.266,13.6286" id="Fill-14" fill="#FFFFFF"></path>
                <path d="M41.1042,17.1571 C41.4002,15.8391 43.4972,15.3161 44.6422,15.6481 C46.6302,16.2251 47.9142,18.4181 48.7382,20.6611 C48.7022,20.6451 48.6692,20.6241 48.6332,20.6091 C47.1062,19.9831 45.5882,20.9391 44.0062,20.4381 C42.7942,20.0541 40.7622,18.6841 41.1042,17.1571 M44.3342,22.4541 C45.3572,22.5621 46.4742,22.0351 47.4322,22.2761 C48.5152,22.5491 49.1842,23.6381 49.8262,24.4691 C49.8312,24.4741 49.8372,24.4751 49.8412,24.4811 C49.9782,24.7311 50.2152,24.7991 50.4772,24.7261 C51.0592,24.6411 51.6312,23.9381 51.4232,23.3921 C50.6662,19.7891 48.4652,13.1661 43.7572,13.7451 C40.7612,14.1131 38.0842,17.1271 40.0672,19.9871 C41.0212,21.3611 42.6832,22.2791 44.3342,22.4541" id="Fill-16" fill="#FFFFFF"></path>
                <path d="M61.7219,12.5765 C63.8089,13.3925 62.7539,15.7445 61.2879,16.6345 C59.9559,17.4435 58.5779,17.5285 57.3919,18.6305 C57.0009,18.9945 56.6499,19.4105 56.3349,19.8605 C56.6799,15.8435 57.9289,11.0935 61.7219,12.5765 M54.5729,24.6375 C54.5789,24.6745 54.5889,24.7065 54.5989,24.7405 C54.6269,24.8255 54.6599,24.8995 54.7069,24.9565 C54.7119,24.9635 54.7179,24.9685 54.7239,24.9745 C54.8539,25.1215 55.0349,25.1795 55.2369,25.1595 C55.2559,25.1595 55.2739,25.1535 55.2919,25.1515 C55.3579,25.1405 55.4209,25.1325 55.4869,25.1085 C55.6909,25.0465 55.8789,24.9205 56.0199,24.7395 C56.0229,24.7355 56.0269,24.7325 56.0299,24.7285 C56.0699,24.6755 56.1019,24.6185 56.1309,24.5565 C56.1749,24.4785 56.2039,24.3975 56.2239,24.3105 C56.2239,24.3095 56.2249,24.3095 56.2249,24.3085 C56.4809,22.8475 57.0439,21.1285 58.1049,20.0595 C59.6849,18.4665 62.1589,18.4865 63.6139,16.5625 C65.3569,14.2565 64.8119,10.8175 61.5089,10.6265 C54.8649,10.2435 54.2529,19.8485 54.5389,24.5055 C54.5419,24.5595 54.5639,24.5905 54.5729,24.6375" id="Fill-18" fill="#FFFFFF"></path>
            </g>
        </g>
    </g>
</svg>