<?xml version="1.0" encoding="UTF-8"?>
<svg width="223px" height="102px" viewBox="0 0 223 102" version="1.1" xmlns="http://www.w3.org/2000/svg" xmlns:xlink="http://www.w3.org/1999/xlink">
    <!-- Generator: Sketch 49 (51002) - http://www.bohemiancoding.com/sketch -->
    <title>Page 1</title>
    <desc>Created with Sketch.</desc>
    <defs></defs>
    <g id="Page-1" stroke="none" stroke-width="1" fill="none" fill-rule="evenodd">
        <g id="POST--VIDEO-Copy" transform="translate(-1103.000000, -694.000000)" fill="#FFFFFF">
            <g id="Page-1" transform="translate(1103.000000, 694.000000)">
                <path d="M46.4361,5.412 C48.3731,6.477 48.8241,9.265 48.7901,11.788 C48.7551,11.747 48.7331,11.698 48.6961,11.658 C47.6771,10.569 46.3851,10.824 45.1391,10.208 C43.9091,9.6 42.3591,7.943 42.5441,6.428 C42.7481,4.769 45.2711,4.771 46.4361,5.412 M44.1421,11.931 C45.0171,12.361 46.2591,12.267 47.0441,12.83 C47.9291,13.464 48.1701,14.787 48.4581,15.757 C48.6031,16.244 48.9941,16.302 49.3651,16.151 C49.7171,16.055 50.0531,15.777 50.1241,15.342 C50.1251,15.336 50.1261,15.329 50.1271,15.322 C50.1421,15.265 50.1491,15.209 50.1531,15.152 C50.7421,11.374 51.0691,4.054 46.1091,3.27 C43.0511,2.787 40.0941,4.954 41.0071,8.212 C41.4521,9.796 42.6751,11.209 44.1421,11.931" id="Fill-1"></path>
                <path d="M63.7447,8.8539 C65.0857,9.9229 64.3487,11.4089 63.0077,12.0339 C61.3997,12.7819 59.6277,12.1179 57.9727,12.6759 C57.2507,12.9189 56.5777,13.3009 55.9517,13.7619 C57.6817,10.1919 60.5327,6.2909 63.7447,8.8539 M52.7497,17.8289 C52.7497,17.8439 52.7497,17.8589 52.7517,17.8729 C52.7597,17.9019 52.7697,17.9279 52.7827,17.9539 C52.8877,18.3059 53.2987,18.3849 53.7027,18.2339 C53.9527,18.1589 54.1967,18.0009 54.3607,17.7259 C55.1437,16.4209 56.3857,15.0649 57.8157,14.4919 C59.0187,14.0099 60.2107,14.3609 61.4547,14.1969 C62.3917,14.0739 63.2897,13.7669 64.0797,13.2419 C66.4707,11.6539 67.1627,8.1439 64.1477,6.8089 C58.1487,4.1539 54.2117,13.0219 52.8137,17.4139 C52.7517,17.5709 52.7267,17.7109 52.7497,17.8289" id="Fill-3"></path>
                <path d="M67.1646,44.2074 C67.1656,45.6714 68.1516,47.0704 68.1206,48.5494 C68.0276,52.9034 63.1116,53.7734 59.9426,53.7744 C56.6406,53.7754 53.2666,52.9044 50.4586,51.1624 C49.0816,50.3084 47.9726,49.1014 46.9566,47.7664 C46.9136,47.6594 46.8556,47.5824 46.7776,47.5364 C46.6516,47.3664 46.5276,47.1914 46.4036,47.0184 C46.3786,46.8714 46.3236,46.7314 46.1976,46.6204 C46.1386,46.5674 46.0796,46.5284 46.0196,46.4784 C43.9846,43.5494 42.1436,40.3374 38.9666,38.8214 C36.0936,37.4504 31.7386,38.8424 28.7276,40.1114 C28.9386,39.0474 29.3716,37.8804 30.2076,37.3674 C31.0796,36.8324 30.9346,35.0784 29.8226,35.7604 C26.2416,37.9594 25.7066,44.4724 28.9626,47.1174 C29.7436,47.7514 31.0016,46.1974 30.2186,45.5604 C29.0906,44.6444 28.6056,43.3464 28.5626,41.9554 C31.2696,40.7754 35.6236,39.2954 38.3116,40.7424 C39.7596,41.5204 41.0786,42.9374 42.2426,44.4354 C33.6866,42.3764 26.3806,57.3574 24.5286,63.5134 C24.1326,64.8324 23.7666,66.1934 23.4446,67.5814 C23.4056,67.6414 23.3606,67.6904 23.3306,67.7624 C20.8626,73.6444 15.8796,77.3374 9.6026,78.4694 C8.1476,78.7314 5.3256,79.2984 3.9296,78.5744 C2.7366,78.7634 2.4546,78.3584 3.0826,77.3584 C3.1316,76.3214 3.6796,75.6094 4.7266,75.2204 C5.2426,74.5254 5.7806,74.1424 6.1236,73.3114 C6.4346,72.5564 6.3676,71.7234 6.4786,70.9314 C6.8796,68.0944 7.7096,65.5094 9.2326,63.0654 C11.5446,59.3564 17.7386,53.4584 22.7216,54.7344 C23.6536,54.9744 24.6446,53.2444 23.6186,52.9804 C18.9966,51.7974 13.4966,55.8704 10.5266,58.9384 C9.8386,59.6504 9.2036,60.4164 8.6176,61.2214 C9.2176,50.1604 16.7526,38.1234 26.7066,30.6654 C27.1636,30.8054 27.7686,30.3294 27.9336,29.7804 C38.3866,22.4874 51.2066,20.2964 61.4406,29.3034 C63.9446,31.5074 66.5486,34.6134 67.5246,37.9214 C68.2266,40.2974 67.1616,42.0094 67.1646,44.2074 M47.8376,51.4494 C50.3176,53.6464 53.2666,54.9504 57.0506,55.4354 C58.6736,55.6434 60.6536,55.6824 62.5706,55.3824 C61.0366,59.5984 56.5796,60.1304 52.6016,57.8984 C50.3256,56.6224 48.7446,54.0854 47.8376,51.4494 M44.3366,58.6224 C43.8096,57.6944 42.3336,59.0294 42.8126,59.8714 C43.2996,60.7254 43.8916,61.4764 44.5556,62.1414 C43.4006,62.8634 40.5186,63.0404 39.6586,63.2414 C37.8086,63.6754 35.9216,64.1794 34.2556,65.1284 C31.2916,66.8154 29.8316,69.5874 29.1706,72.8564 C28.1906,77.6994 27.9666,90.5214 34.0476,92.5674 C38.2156,93.9694 41.8966,89.0514 44.3736,86.5924 C47.2786,83.7064 45.9856,86.5534 45.3016,88.9994 C44.2906,92.6174 42.6246,96.8514 38.9766,98.5834 C37.5606,99.2554 36.0866,99.4254 34.6126,99.2744 C34.5986,99.2674 34.5936,99.2534 34.5776,99.2474 C23.6016,94.3954 22.9716,78.0784 24.9996,68.1874 C26.3086,61.8084 28.6796,54.0674 33.6126,49.5344 C36.6366,46.7554 41.4796,45.1734 44.8946,48.1404 C45.0436,48.3484 45.1956,48.5434 45.3476,48.7424 C45.3486,48.7644 45.3386,48.7864 45.3416,48.8084 C46.0396,54.4854 49.4706,60.0774 55.4766,60.8764 C59.5856,61.4234 62.5276,59.6944 63.9396,56.2624 C64.3336,65.8834 48.7006,66.2854 44.3366,58.6224 M41.0506,71.8994 C41.7146,71.0704 42.7456,69.6124 43.5456,68.9604 C43.5946,68.9204 43.6386,68.8774 43.6776,68.8324 C43.6626,69.0014 43.6506,69.1894 43.6446,69.4214 C43.5286,73.8414 47.0476,76.9274 46.9906,81.3274 C46.9886,81.4574 47.0106,81.5644 47.0476,81.6544 C47.0596,81.7754 47.0696,81.8954 47.0816,82.0174 C47.1106,82.3184 47.1876,82.5574 47.4936,82.6794 C48.8336,83.2144 49.8576,82.1274 51.0766,81.6404 C55.3156,79.9454 57.1516,83.1254 60.9926,82.8324 C63.4206,82.6474 65.9786,80.4204 63.5806,83.7114 C60.2586,88.2714 50.6086,91.0364 47.8766,84.1544 C47.8626,84.1214 47.8396,84.1064 47.8246,84.0774 C47.4216,83.1064 46.9236,82.8724 46.3506,83.0404 C46.2146,83.0244 46.0616,83.0354 45.8756,83.1124 C39.0166,85.9404 38.0406,75.6624 41.0506,71.8994 M12.1066,79.5924 C16.3686,78.2914 20.0116,75.7834 22.5776,72.2234 C21.9486,76.6654 21.9216,81.2154 22.9836,85.4334 C23.9956,89.4504 25.7736,93.8484 28.5996,97.1184 C26.9906,96.1954 25.4946,95.1134 24.2136,94.1244 C19.1446,90.2124 15.1016,85.2204 12.1066,79.5924 M10.3066,31.8014 C8.8506,31.1004 7.7276,31.0344 6.1986,30.9744 C4.3506,30.9014 2.6436,31.6944 4.2876,29.8054 C8.3276,25.1644 21.5106,24.2074 25.8066,29.5864 C22.2636,32.2014 19.0866,35.2804 16.4236,38.5074 C15.0626,35.7754 13.1066,33.1514 10.3066,31.8014 M46.6436,21.8484 C39.8286,21.8964 33.1956,24.5244 27.4036,28.4484 C25.4776,26.0504 21.5056,25.0704 18.7936,24.6264 C13.5806,23.7734 8.3016,24.6604 4.0926,27.9784 C3.0966,28.7644 0.9386,30.3784 1.6266,31.9834 C2.1366,33.1724 3.9666,32.8204 4.9186,32.8524 C10.0496,33.0214 12.9956,35.7364 15.1026,40.1734 C10.1126,46.8164 6.5346,55.6454 6.8786,64.0444 C6.1876,65.3864 5.6316,66.7964 5.2526,68.2514 C4.9316,69.4804 5.0616,70.8934 4.7086,72.0784 C4.0416,74.3064 2.1796,74.8584 0.8346,76.5344 C-2.7564,81.0094 6.2546,80.7224 8.7006,80.3634 C9.1996,80.2904 9.6916,80.1994 10.1786,80.0964 C14.5476,88.6514 23.4596,99.6814 33.7136,101.0684 C38.1406,101.6674 41.8106,99.2234 44.1796,95.6214 C45.2776,93.9504 47.1616,90.4404 47.8386,87.5024 C50.7776,90.4324 56.0236,90.8544 59.6496,89.0634 C62.1186,87.8444 67.6386,83.5634 66.6556,80.3144 C66.5706,80.0344 66.3636,79.8424 66.0606,79.8344 C64.9706,79.8094 64.0686,80.3684 63.0126,80.6174 C59.3446,81.4804 59.0896,80.0174 56.0796,79.2464 C55.2956,79.0454 48.6156,79.6324 48.7316,80.8464 C48.7276,80.8014 48.7106,80.7714 48.7016,80.7314 C48.6786,77.3604 46.6886,74.9134 45.8016,71.7724 C45.4486,70.5244 46.1746,66.5784 44.2486,66.1774 C43.8336,66.0914 43.4806,66.2654 43.2106,66.5794 C40.3006,69.9634 36.6306,74.0934 37.3596,78.9274 C37.8946,82.4684 40.4056,85.1424 43.5936,85.2274 C41.0586,87.9044 37.4076,92.7844 33.9606,90.3104 C31.9106,88.8394 31.2816,84.8604 30.8926,82.5984 C29.5506,74.8074 30.5006,67.2404 39.1306,65.1204 C41.0966,64.6374 44.0256,64.5914 45.6856,63.1374 C53.0946,68.8024 67.0566,65.2444 65.5506,54.5694 C67.1706,53.8864 68.5326,52.8114 69.2816,51.1894 C69.8436,49.9754 69.9216,48.3384 69.7566,47.0484 C69.5336,45.3064 68.8776,44.3684 69.1656,42.4684 C69.2766,41.7334 69.7626,41.1244 69.8336,40.3374 C70.2086,36.2094 66.5156,31.4914 63.8296,28.8074 C59.2236,24.2044 53.1336,21.8024 46.6436,21.8484" id="Fill-5"></path>
                <path d="M52.2086,39.618 C51.7206,38.583 50.8336,37.698 49.9066,36.972 C48.7966,36.101 47.6386,35.661 46.4386,35.46 C46.4046,35.265 46.2866,35.099 46.0676,34.996 C46.0226,33.139 48.4156,31.218 49.7476,30.38 C51.9006,29.026 54.6756,28.509 56.7866,30.233 C60.3766,33.163 55.7776,38.708 52.2086,39.618 M57.5846,28.336 C54.7826,26.448 51.2876,27.419 48.7046,29.204 C47.1396,30.285 45.2396,32.067 44.5876,34.073 C43.6166,33.291 42.7546,32.271 41.9476,31.444 C41.2576,30.737 39.9836,32.276 40.6916,33.001 C41.4526,33.78 42.2356,34.66 43.1046,35.408 C42.4576,35.471 41.8026,35.557 41.1356,35.657 C40.1636,35.802 39.8456,37.614 41.0806,37.43 C43.4996,37.069 45.9086,36.689 48.0766,38.103 C49.2006,38.837 51.1986,40.384 50.8666,41.96 C50.5986,43.238 52.3026,43.023 52.5186,41.995 C52.5686,41.756 52.5876,41.524 52.5916,41.295 C57.5336,39.812 62.9776,31.969 57.5846,28.336" id="Fill-7"></path>
                <path d="M54.1158,31.4935 C52.8408,31.1645 51.3758,31.7205 50.8898,33.0115 C50.4048,34.3005 51.0228,35.8655 52.2198,36.4195 C52.4668,36.5345 52.7238,36.5985 52.9818,36.6205 C52.5248,36.3635 52.2458,35.4715 52.3828,34.9405 C52.6558,33.8755 53.4798,33.9295 54.0358,34.3375 C54.5388,34.7065 54.7948,35.3785 54.6058,35.9755 C54.5738,36.0765 54.5258,36.1665 54.4708,36.2515 C54.8698,35.9975 55.4918,35.5275 55.7058,35.0575 C56.2758,33.8045 55.7048,31.9035 54.1158,31.4935" id="Fill-9"></path>
                <path d="M129.3638,35.516 C115.7388,37.811 112.8598,17.776 126.5008,15.489 C135.4518,15.006 139.2348,33.853 129.3638,35.516 M126.8948,13.665 C126.8598,13.667 126.8288,13.688 126.7958,13.695 C126.7538,13.697 126.7238,13.683 126.6768,13.691 C120.1108,14.731 115.0918,19.94 115.5518,26.823 C116.0138,33.76 122.3058,38.417 129.1198,37.343 C141.1568,35.446 138.1708,12.886 126.8948,13.665" id="Fill-11"></path>
                <path d="M182.063,32.1723651 C177.873,38.6832317 171.393,36.6070077 169.29,29.5274597 C168.119,25.5863897 167.997,19.5165196 171.777,17.0475836 C175.175,14.8275798 179.077,17.1795606 180.421,20.7440132 C180.81,21.7740778 182.305,20.357739 181.946,19.4049293 C180.386,15.2696492 176.252,13.0228208 172.19,14.8383097 C167.972,16.7235424 166.475,22.4049924 166.907,26.8610947 C167.887,36.990063 177.114,42.7155053 183.242,33.1916999 C183.941,32.1047672 182.778,31.0607538 182.063,32.1723651" id="Fill-13"></path>
                <path d="M145.3257,27.6254 L145.3257,24.3374 C145.3257,21.8824 145.6237,19.2134 145.3257,16.7754 C145.3067,16.6234 145.3427,16.3474 145.3697,16.0624 C144.9677,16.2704 144.0947,15.8114 145.3797,15.9624 C145.4077,15.6424 145.4187,15.3254 145.3257,15.1654 C145.5747,15.5924 145.5777,15.8374 145.4757,15.9734 C145.4947,15.9754 145.5067,15.9764 145.5257,15.9794 C147.6987,16.2764 150.0407,15.5514 152.2977,15.9024 C155.9687,16.4744 159.6107,19.0824 157.9217,23.3264 C156.2047,27.6384 149.5287,27.9394 145.3257,27.6254 M159.9887,21.3534 C160.4437,13.3024 150.0477,13.3094 144.4917,14.3824 C144.0227,14.4734 143.6037,15.0154 143.6037,15.4834 L143.6037,37.5144 C143.6037,38.7624 145.3257,38.0644 145.3257,37.0854 L145.3257,30.0194 L158.7037,36.7084 C159.5567,37.1354 160.5707,35.4394 159.6007,34.9544 C155.9297,33.1184 152.2577,31.2824 148.5857,29.4474 C153.8707,29.0934 159.6637,27.1174 159.9887,21.3534" id="Fill-15"></path>
                <path d="M144.4761,16.973 C144.4401,16.968 144.4131,16.966 144.3791,16.962 C144.3761,16.995 144.3731,17.028 144.3701,17.062 C144.4121,17.04 144.4481,17.011 144.4761,16.973" id="Fill-17"></path>
                <path d="M193.1109,26.45121 L197.2919,16.145682 C198.8899,19.5251032 200.4899,22.9056623 202.0899,26.2850836 C199.0969,26.3397005 196.1039,26.3954552 193.1109,26.45121 M198.1019,13.2179881 C197.7479,12.4681435 196.8219,13.1064786 196.6049,13.6412691 C193.6679,20.8836988 190.7299,28.1249907 187.7929,35.3674204 C187.2449,36.7157753 188.7799,37.1288157 189.2619,35.9397601 C190.2639,33.4706206 191.2649,31.0026191 192.2669,28.5334796 C195.8349,28.4663464 199.4019,28.4014888 202.9699,28.3354934 C202.9979,28.3343555 203.0219,28.3172877 203.0489,28.3127363 C204.3189,30.9969298 205.5899,33.6799855 206.8589,36.3630411 C207.3629,37.4280708 208.8409,35.9124516 208.3829,34.9430015 C204.9559,27.7017096 201.5289,20.4592799 198.1019,13.2179881" id="Fill-19"></path>
                <path d="M220.7857,28.347 C219.8847,39.922 207.8367,43.779 198.0817,45.395 C184.9507,47.571 171.5697,46.483 158.3477,47.569 C145.7307,48.605 133.7647,50.218 121.1867,47.648 C113.3957,46.056 106.4087,44.038 98.3347,44.727 C95.3987,44.977 92.4917,45.461 89.5977,45.993 C87.0057,46.468 83.8967,47.492 81.2237,46.967 C82.7777,46.895 87.6627,42.763 89.0287,41.722 C92.5237,39.058 95.8567,36 98.2077,32.252 C99.6537,29.947 100.3187,27.393 101.5617,24.99 C103.4267,21.387 106.2607,18.285 109.3397,15.683 C114.5537,11.276 120.6527,8.535 127.2567,7.005 C145.2357,2.839 164.3847,1.15 182.8027,2.297 C198.7847,3.292 222.4217,7.341 220.7857,28.347 M215.5037,9.715 C208.6527,4.045 199.0277,2.176 190.4457,1.124 C169.6477,-1.425 147.3187,0.527 126.9467,5.317 C119.8997,6.974 113.4127,10.09 107.9387,14.874 C105.3367,17.149 102.9757,19.735 101.1347,22.669 C99.0547,25.981 98.2047,29.796 95.8777,32.973 C92.1557,38.054 86.8627,41.185 81.8907,44.837 C81.0647,45.443 78.2257,47.364 79.7387,48.485 C79.8087,48.571 79.9057,48.642 80.0537,48.677 C80.1617,48.731 80.2737,48.749 80.3837,48.741 C84.7687,49.629 90.0217,47.558 94.2977,46.968 C104.0167,45.624 112.3177,47.912 121.7637,49.692 C133.9567,51.99 145.6427,50.398 157.8587,49.392 C172.2307,48.209 186.8647,49.586 201.0647,46.599 C209.5007,44.825 219.0537,41.003 221.7807,31.973 C224.1007,24.292 221.7257,14.866 215.5037,9.715" id="Fill-21"></path>
            </g>
        </g>
    </g>
</svg>