<?xml version="1.0" encoding="UTF-8"?>
<svg width="12px" height="19px" viewBox="0 0 12 19" version="1.1" xmlns="http://www.w3.org/2000/svg" xmlns:xlink="http://www.w3.org/1999/xlink">
    <!-- Generator: Sketch 49 (51002) - http://www.bohemiancoding.com/sketch -->
    <title>Fill 1</title>
    <desc>Created with Sketch.</desc>
    <defs></defs>
    <g id="Page-1" stroke="none" stroke-width="1" fill="none" fill-rule="evenodd">
        <g id="POST--VIDEO-Copy" transform="translate(-883.000000, -379.000000)" fill="#FFFFFF">
            <g id="Page-1" transform="translate(879.000000, 379.000000)">
                <path d="M9.9755,10.0168 C8.1945,11.1418 7.2275,12.5998 6.5205,14.2648 C5.9655,9.0688 5.9175,0.6398 11.1585,1.9068 C12.8735,2.3208 13.7635,4.1938 13.7895,5.8488 C13.8315,8.5128 11.8535,8.8308 9.9755,10.0168 M10.6355,0.0158 C2.8355,0.6558 4.2985,12.8918 5.2605,18.1208 C5.2565,18.2958 5.3025,18.4288 5.3935,18.5168 C5.6155,18.8708 6.0855,18.7698 6.4625,18.4628 C6.6825,18.3218 6.8695,18.1178 6.9525,17.8528 C7.3785,16.4898 7.6355,14.9538 8.3615,13.7118 C9.4385,11.8708 11.1325,11.4288 12.8235,10.3948 C14.1895,9.5598 15.0875,8.2658 15.3955,6.6928 C15.9885,3.6558 14.1595,-0.2742 10.6355,0.0158" id="Fill-1"></path>
            </g>
        </g>
    </g>
</svg>