<?xml version="1.0" encoding="UTF-8"?>
<svg width="12px" height="17px" viewBox="0 0 12 17" version="1.1" xmlns="http://www.w3.org/2000/svg" xmlns:xlink="http://www.w3.org/1999/xlink">
    <!-- Generator: Sketch 49 (51002) - http://www.bohemiancoding.com/sketch -->
    <title>Fill 5</title>
    <desc>Created with Sketch.</desc>
    <defs></defs>
    <g id="Page-1" stroke="none" stroke-width="1" fill="none" fill-rule="evenodd">
        <g id="POST--VIDEO-Copy" transform="translate(-879.000000, -405.000000)" fill="#FFFFFF">
            <g id="Page-1" transform="translate(879.000000, 379.000000)">
                <path d="M4.3788,36.0695 C3.2888,36.7625 2.6418,37.6015 2.2038,38.5705 C1.9528,37.3645 1.7858,36.1415 1.7518,34.9345 C1.7048,33.2775 1.7978,31.2635 2.9828,29.9725 C4.2748,28.5645 7.2618,27.3045 8.8998,28.8545 C12.3008,32.0745 6.4318,34.7625 4.3788,36.0695 M8.1268,26.3755 C4.3038,25.7925 0.8068,29.1415 0.1978,32.6895 C-0.3392,35.8175 0.2818,39.2845 1.2868,42.2675 C1.3088,42.3335 1.3478,42.3675 1.3788,42.4195 C1.3988,42.4535 1.4128,42.4935 1.4398,42.5205 C1.6988,42.8265 2.1248,42.7635 2.4728,42.5165 C2.5318,42.4795 2.5848,42.4385 2.6358,42.3895 C2.6608,42.3655 2.6818,42.3405 2.7058,42.3145 C2.7528,42.2605 2.7968,42.2075 2.8338,42.1435 C2.9278,41.9955 2.9828,41.8365 2.9898,41.6705 C3.4328,39.4855 3.7028,38.2715 5.7398,37.1115 C7.5128,36.1025 9.4938,35.2385 10.6008,33.4325 C12.1758,30.8615 11.5298,26.8955 8.1268,26.3755" id="Fill-5"></path>
            </g>
        </g>
    </g>
</svg>