<?xml version="1.0" encoding="UTF-8"?>
<svg width="13px" height="17px" viewBox="0 0 13 17" version="1.1" xmlns="http://www.w3.org/2000/svg" xmlns:xlink="http://www.w3.org/1999/xlink">
    <!-- Generator: Sketch 49 (51002) - http://www.bohemiancoding.com/sketch -->
    <title>Fill 3</title>
    <desc>Created with Sketch.</desc>
    <defs></defs>
    <g id="Page-1" stroke="none" stroke-width="1" fill="none" fill-rule="evenodd">
        <g id="POST--VIDEO-Copy" transform="translate(-892.000000, -396.000000)" fill="#FFFFFF">
            <g id="Page-1" transform="translate(879.000000, 379.000000)">
                <path d="M18.5949253,19.6677 C23.5611279,18.0127 24.3268508,23.0917 23.547133,26.5677 C23.3182158,27.5907 23.0163251,28.6077 22.657455,29.6047 C22.3425689,28.3357 21.7487838,27.1747 20.6341872,26.2957 C19.3706446,25.2997 16.8335628,25.3767 15.9918674,24.0437 C14.8612766,22.2547 17.0764749,20.1737 18.5949253,19.6677 M18.1640812,27.1497 C20.6941655,28.2537 21.2569619,30.5357 21.2629597,33.0497 C21.2629597,33.0967 21.2809532,33.1237 21.2859514,33.1647 C21.2939485,33.2197 21.2969474,33.2767 21.3169401,33.3227 C21.4209025,33.6567 21.7008012,33.7537 22.0126883,33.6887 C22.0176865,33.6887 22.0226847,33.6867 22.0266833,33.6867 C22.0746659,33.6757 22.1206493,33.6677 22.1686319,33.6497 C22.4355353,33.5837 22.6984401,33.4107 22.8583823,33.0867 C25.0325954,28.6887 28.8032307,16.6237 19.7475082,17.6507 C16.8005747,17.9847 13.2608558,21.0967 14.0905556,24.3747 C14.6223631,26.4737 16.4946854,26.4217 18.1640812,27.1497" id="Fill-3" transform="translate(19.742760, 25.648328) scale(-1, 1) translate(-19.742760, -25.648328) "></path>
            </g>
        </g>
    </g>
</svg>