<?xml version="1.0" encoding="UTF-8"?>
<svg width="13px" height="18px" viewBox="0 0 13 18" version="1.1" xmlns="http://www.w3.org/2000/svg" xmlns:xlink="http://www.w3.org/1999/xlink">
    <!-- Generator: Sketch 49 (51002) - http://www.bohemiancoding.com/sketch -->
    <title>Fill 7</title>
    <desc>Created with Sketch.</desc>
    <defs></defs>
    <g id="Page-1" stroke="none" stroke-width="1" fill="none" fill-rule="evenodd">
        <g id="POST--VIDEO-Copy" transform="translate(-894.000000, -418.000000)" fill="#FFFFFF">
            <g id="Page-1" transform="translate(879.000000, 379.000000)">
                <g id="Group-9" transform="translate(20.500000, 47.754800) scale(-1, 1) rotate(-30.000000) translate(-20.500000, -47.754800) translate(14.000000, 39.254800)">
                    <path d="M6.0092,13.6751 C6.2082,12.1361 5.7502,10.9011 4.2552,9.4021 C2.6172,7.7601 0.9882,6.2491 2.9942,4.0491 C4.5582,2.3331 7.1462,1.8861 9.1282,3.1741 C13.0382,5.7141 9.0742,10.6731 6.0092,13.6751 M9.8152,1.2841 C6.4482,-0.4899 2.0542,1.4531 0.6592,4.9091 C0.0222,6.4921 0.2332,7.9111 1.2622,9.2401 C2.0572,10.2661 3.4242,10.9901 4.0652,12.1391 C4.8142,13.4801 4.2042,14.7161 3.6862,16.0591 C3.4982,16.5451 3.6732,16.7911 3.9662,16.8601 C4.1842,17.0511 4.5202,17.0771 4.9132,16.7421 C8.4242,13.7481 16.8222,4.9771 9.8152,1.2841" id="Fill-7"></path>
                </g>
            </g>
        </g>
    </g>
</svg>